<svg width="1337" height="362" viewBox="0 0 1337 362" fill="none" xmlns="http://www.w3.org/2000/svg">
<path fill-rule="evenodd" clip-rule="evenodd" d="M1366 199.285L1320.47 185.725C1274.93 172.165 1183.87 145.046 1092.8 111.147C1001.73 77.2482 910.667 36.5695 819.6 16.23C728.533 -4.10938 637.467 -4.10941 546.4 9.45023C455.333 23.0098 364.267 50.129 273.2 56.9088C182.133 63.6886 91.0667 50.129 45.5333 43.3492L0 36.5694V362H45.5333C91.0667 362 182.133 362 273.2 362C364.267 362 455.333 362 546.4 362C637.467 362 728.533 362 819.6 362C910.667 362 1001.73 362 1092.8 362C1183.87 362 1274.93 362 1320.47 362H1366V199.285Z" fill="url(#paint0_linear_191_9)"/>
<defs>
<linearGradient id="paint0_linear_191_9" x1="492" y1="362" x2="519.203" y2="12.7251" gradientUnits="userSpaceOnUse">
<stop stop-color="#FF5733"/>
<stop offset="1" stop-color="#FF9166"/>
</linearGradient>
</defs>
</svg>
