<svg xmlns="http://www.w3.org/2000/svg" xmlns:xlink="http://www.w3.org/1999/xlink" width="500" zoomAndPan="magnify" viewBox="0 0 375 374.999991" height="500" preserveAspectRatio="xMidYMid meet" version="1.0"><defs><g/><clipPath id="3cce82751e"><path d="M 29.8125 29.8125 L 345.1875 29.8125 L 345.1875 345.1875 L 29.8125 345.1875 Z M 29.8125 29.8125 " clip-rule="nonzero"/></clipPath><clipPath id="ef26a31156"><path d="M 187.5 345.1875 C 145.398438 345.1875 105.757812 328.800781 76.007812 298.992188 C 46.199219 269.242188 29.8125 229.601562 29.8125 187.5 C 29.8125 145.398438 46.199219 105.757812 76.007812 76.007812 C 105.757812 46.199219 145.398438 29.8125 187.5 29.8125 C 229.601562 29.8125 269.242188 46.199219 298.992188 76.007812 C 328.800781 105.820312 345.1875 145.398438 345.1875 187.5 C 345.1875 229.601562 328.800781 269.242188 298.992188 298.992188 C 269.242188 328.800781 229.601562 345.1875 187.5 345.1875 Z M 187.5 39.265625 C 147.921875 39.265625 110.671875 54.707031 82.691406 82.691406 C 54.707031 110.671875 39.265625 147.921875 39.265625 187.5 C 39.265625 227.078125 54.707031 264.328125 82.691406 292.308594 C 110.671875 320.292969 147.921875 335.734375 187.5 335.734375 C 227.078125 335.734375 264.328125 320.292969 292.308594 292.308594 C 320.292969 264.328125 335.734375 227.078125 335.734375 187.5 C 335.734375 147.921875 320.292969 110.671875 292.308594 82.691406 C 264.328125 54.707031 227.078125 39.265625 187.5 39.265625 Z M 187.5 39.265625 " clip-rule="nonzero"/></clipPath><clipPath id="0a9f3f02aa"><path d="M 103.054688 153.414062 L 271.804688 153.414062 L 271.804688 221.664062 L 103.054688 221.664062 Z M 103.054688 153.414062 " clip-rule="nonzero"/></clipPath><clipPath id="91cd4d2483"><path d="M 269.507812 208.136719 L 268.765625 208.136719 L 270.855469 198.15625 C 271.328125 196.066406 270.789062 192.761719 269.777344 190.871094 L 255.882812 165.917969 C 254.804688 164.027344 252.175781 162.476562 250.015625 162.476562 L 223.578125 162.476562 C 221.417969 162.476562 219.261719 164.230469 218.855469 166.320312 L 207.929688 217.578125 C 207.457031 219.671875 208.875 221.421875 211.035156 221.421875 L 223.78125 221.421875 C 225.195312 214.8125 231.671875 209.484375 238.28125 209.484375 C 244.890625 209.484375 249.070312 214.8125 247.722656 221.421875 L 262.089844 221.421875 C 262.222656 221.421875 262.289062 221.421875 262.425781 221.421875 C 262.492188 221.421875 262.628906 221.421875 262.695312 221.421875 L 266.742188 221.421875 C 268.160156 221.421875 269.574219 220.277344 269.910156 218.859375 L 271.664062 210.699219 C 271.933594 209.285156 270.992188 208.136719 269.507812 208.136719 Z M 261.347656 190.128906 C 261.144531 191.140625 259.796875 192.019531 258.3125 192.019531 L 225.667969 192.019531 C 224.253906 192.019531 223.308594 190.871094 223.578125 189.457031 L 227.625 170.367188 C 227.894531 168.953125 229.378906 167.804688 230.792969 167.804688 L 247.65625 167.804688 C 249.070312 167.804688 250.824219 168.816406 251.566406 170.097656 L 260.46875 186.082031 C 261.210938 187.230469 261.546875 189.050781 261.347656 190.128906 Z M 125.042969 205.371094 L 205.4375 205.371094 L 202.738281 217.984375 L 169.894531 217.984375 L 161.53125 209.824219 L 124.097656 209.824219 Z M 209.144531 188.105469 L 206.449219 200.71875 L 176.097656 200.71875 L 167.800781 192.625 L 117.152344 192.625 L 118.097656 188.105469 Z M 173.871094 175.292969 L 110.070312 175.292969 L 111.015625 170.839844 L 212.785156 170.839844 L 210.089844 183.453125 L 182.234375 183.453125 Z M 179.738281 158.027344 L 103.054688 158.027344 L 104 153.574219 L 216.496094 153.574219 L 213.796875 166.1875 L 188.101562 166.1875 Z M 179.738281 158.027344 " clip-rule="nonzero"/></clipPath><linearGradient x1="-0.00000755298" gradientTransform="matrix(0.674436, 0, 0, 0.674436, 103.056154, 103.194828)" y1="125" x2="250.208856" gradientUnits="userSpaceOnUse" y2="125" id="d490f787ca"><stop stop-opacity="1" stop-color="rgb(100%, 34.098816%, 19.999695%)" offset="0"/><stop stop-opacity="1" stop-color="rgb(100%, 34.306335%, 20.057678%)" offset="0.00390625"/><stop stop-opacity="1" stop-color="rgb(100%, 34.513855%, 20.115662%)" offset="0.0078125"/><stop stop-opacity="1" stop-color="rgb(100%, 34.719849%, 20.173645%)" offset="0.0117187"/><stop stop-opacity="1" stop-color="rgb(100%, 34.927368%, 20.231628%)" offset="0.015625"/><stop stop-opacity="1" stop-color="rgb(100%, 35.134888%, 20.289612%)" offset="0.0195312"/><stop stop-opacity="1" stop-color="rgb(100%, 35.342407%, 20.349121%)" offset="0.0234375"/><stop stop-opacity="1" stop-color="rgb(100%, 35.549927%, 20.407104%)" offset="0.0273438"/><stop stop-opacity="1" stop-color="rgb(100%, 35.757446%, 20.465088%)" offset="0.03125"/><stop stop-opacity="1" stop-color="rgb(100%, 35.96344%, 20.523071%)" offset="0.0351562"/><stop stop-opacity="1" stop-color="rgb(100%, 36.170959%, 20.581055%)" offset="0.0390625"/><stop stop-opacity="1" stop-color="rgb(100%, 36.378479%, 20.639038%)" offset="0.0429687"/><stop stop-opacity="1" stop-color="rgb(100%, 36.585999%, 20.698547%)" offset="0.046875"/><stop stop-opacity="1" stop-color="rgb(100%, 36.791992%, 20.756531%)" offset="0.0507812"/><stop stop-opacity="1" stop-color="rgb(100%, 36.999512%, 20.814514%)" offset="0.0546875"/><stop stop-opacity="1" stop-color="rgb(100%, 37.207031%, 20.872498%)" offset="0.0585937"/><stop stop-opacity="1" stop-color="rgb(100%, 37.414551%, 20.932007%)" offset="0.0625"/><stop stop-opacity="1" stop-color="rgb(100%, 37.62207%, 20.98999%)" offset="0.0664062"/><stop stop-opacity="1" stop-color="rgb(100%, 37.82959%, 21.047974%)" offset="0.0703125"/><stop stop-opacity="1" stop-color="rgb(100%, 38.035583%, 21.105957%)" offset="0.0742187"/><stop stop-opacity="1" stop-color="rgb(100%, 38.243103%, 21.16394%)" offset="0.078125"/><stop stop-opacity="1" stop-color="rgb(100%, 38.450623%, 21.221924%)" offset="0.0820312"/><stop stop-opacity="1" stop-color="rgb(100%, 38.658142%, 21.281433%)" offset="0.0859375"/><stop stop-opacity="1" stop-color="rgb(100%, 38.864136%, 21.339417%)" offset="0.0898438"/><stop stop-opacity="1" stop-color="rgb(100%, 39.071655%, 21.3974%)" offset="0.09375"/><stop stop-opacity="1" stop-color="rgb(100%, 39.279175%, 21.455383%)" offset="0.0976562"/><stop stop-opacity="1" stop-color="rgb(100%, 39.486694%, 21.513367%)" offset="0.101562"/><stop stop-opacity="1" stop-color="rgb(100%, 39.692688%, 21.57135%)" offset="0.105469"/><stop stop-opacity="1" stop-color="rgb(100%, 39.900208%, 21.630859%)" offset="0.109375"/><stop stop-opacity="1" stop-color="rgb(100%, 40.107727%, 21.688843%)" offset="0.113281"/><stop stop-opacity="1" stop-color="rgb(100%, 40.315247%, 21.746826%)" offset="0.117187"/><stop stop-opacity="1" stop-color="rgb(100%, 40.522766%, 21.80481%)" offset="0.121094"/><stop stop-opacity="1" stop-color="rgb(100%, 40.730286%, 21.862793%)" offset="0.125"/><stop stop-opacity="1" stop-color="rgb(100%, 40.936279%, 21.920776%)" offset="0.128906"/><stop stop-opacity="1" stop-color="rgb(100%, 41.143799%, 21.980286%)" offset="0.132812"/><stop stop-opacity="1" stop-color="rgb(100%, 41.351318%, 22.038269%)" offset="0.136719"/><stop stop-opacity="1" stop-color="rgb(100%, 41.558838%, 22.096252%)" offset="0.140625"/><stop stop-opacity="1" stop-color="rgb(100%, 41.764832%, 22.154236%)" offset="0.144531"/><stop stop-opacity="1" stop-color="rgb(100%, 41.972351%, 22.212219%)" offset="0.148438"/><stop stop-opacity="1" stop-color="rgb(100%, 42.179871%, 22.270203%)" offset="0.152344"/><stop stop-opacity="1" stop-color="rgb(100%, 42.38739%, 22.329712%)" offset="0.15625"/><stop stop-opacity="1" stop-color="rgb(100%, 42.59491%, 22.387695%)" offset="0.160156"/><stop stop-opacity="1" stop-color="rgb(100%, 42.802429%, 22.445679%)" offset="0.164063"/><stop stop-opacity="1" stop-color="rgb(100%, 43.008423%, 22.503662%)" offset="0.167969"/><stop stop-opacity="1" stop-color="rgb(100%, 43.215942%, 22.561646%)" offset="0.171875"/><stop stop-opacity="1" stop-color="rgb(100%, 43.423462%, 22.619629%)" offset="0.175781"/><stop stop-opacity="1" stop-color="rgb(100%, 43.630981%, 22.679138%)" offset="0.179688"/><stop stop-opacity="1" stop-color="rgb(100%, 43.836975%, 22.737122%)" offset="0.183594"/><stop stop-opacity="1" stop-color="rgb(100%, 44.044495%, 22.795105%)" offset="0.1875"/><stop stop-opacity="1" stop-color="rgb(100%, 44.252014%, 22.853088%)" offset="0.191406"/><stop stop-opacity="1" stop-color="rgb(100%, 44.459534%, 22.911072%)" offset="0.195312"/><stop stop-opacity="1" stop-color="rgb(100%, 44.667053%, 22.969055%)" offset="0.199219"/><stop stop-opacity="1" stop-color="rgb(100%, 44.874573%, 23.028564%)" offset="0.203125"/><stop stop-opacity="1" stop-color="rgb(100%, 45.080566%, 23.086548%)" offset="0.207031"/><stop stop-opacity="1" stop-color="rgb(100%, 45.288086%, 23.144531%)" offset="0.210937"/><stop stop-opacity="1" stop-color="rgb(100%, 45.495605%, 23.202515%)" offset="0.214844"/><stop stop-opacity="1" stop-color="rgb(100%, 45.703125%, 23.262024%)" offset="0.21875"/><stop stop-opacity="1" stop-color="rgb(100%, 45.909119%, 23.320007%)" offset="0.222656"/><stop stop-opacity="1" stop-color="rgb(100%, 46.116638%, 23.377991%)" offset="0.226562"/><stop stop-opacity="1" stop-color="rgb(100%, 46.324158%, 23.435974%)" offset="0.230469"/><stop stop-opacity="1" stop-color="rgb(100%, 46.531677%, 23.493958%)" offset="0.234375"/><stop stop-opacity="1" stop-color="rgb(100%, 46.737671%, 23.551941%)" offset="0.238281"/><stop stop-opacity="1" stop-color="rgb(100%, 46.94519%, 23.61145%)" offset="0.242187"/><stop stop-opacity="1" stop-color="rgb(100%, 47.15271%, 23.669434%)" offset="0.246094"/><stop stop-opacity="1" stop-color="rgb(100%, 47.360229%, 23.727417%)" offset="0.25"/><stop stop-opacity="1" stop-color="rgb(100%, 47.567749%, 23.7854%)" offset="0.253906"/><stop stop-opacity="1" stop-color="rgb(100%, 47.775269%, 23.843384%)" offset="0.257812"/><stop stop-opacity="1" stop-color="rgb(100%, 47.981262%, 23.901367%)" offset="0.261719"/><stop stop-opacity="1" stop-color="rgb(100%, 48.188782%, 23.960876%)" offset="0.265625"/><stop stop-opacity="1" stop-color="rgb(100%, 48.396301%, 24.01886%)" offset="0.269531"/><stop stop-opacity="1" stop-color="rgb(100%, 48.603821%, 24.076843%)" offset="0.273437"/><stop stop-opacity="1" stop-color="rgb(100%, 48.809814%, 24.134827%)" offset="0.277344"/><stop stop-opacity="1" stop-color="rgb(100%, 49.017334%, 24.19281%)" offset="0.28125"/><stop stop-opacity="1" stop-color="rgb(100%, 49.224854%, 24.250793%)" offset="0.285156"/><stop stop-opacity="1" stop-color="rgb(100%, 49.432373%, 24.310303%)" offset="0.289062"/><stop stop-opacity="1" stop-color="rgb(100%, 49.639893%, 24.368286%)" offset="0.292969"/><stop stop-opacity="1" stop-color="rgb(100%, 49.847412%, 24.42627%)" offset="0.296875"/><stop stop-opacity="1" stop-color="rgb(100%, 50.053406%, 24.484253%)" offset="0.300781"/><stop stop-opacity="1" stop-color="rgb(100%, 50.260925%, 24.542236%)" offset="0.304687"/><stop stop-opacity="1" stop-color="rgb(100%, 50.468445%, 24.60022%)" offset="0.308594"/><stop stop-opacity="1" stop-color="rgb(100%, 50.675964%, 24.659729%)" offset="0.3125"/><stop stop-opacity="1" stop-color="rgb(100%, 50.881958%, 24.717712%)" offset="0.316406"/><stop stop-opacity="1" stop-color="rgb(100%, 51.089478%, 24.775696%)" offset="0.320312"/><stop stop-opacity="1" stop-color="rgb(100%, 51.296997%, 24.833679%)" offset="0.324219"/><stop stop-opacity="1" stop-color="rgb(100%, 51.504517%, 24.891663%)" offset="0.328125"/><stop stop-opacity="1" stop-color="rgb(100%, 51.712036%, 24.949646%)" offset="0.332031"/><stop stop-opacity="1" stop-color="rgb(100%, 51.919556%, 25.009155%)" offset="0.335937"/><stop stop-opacity="1" stop-color="rgb(100%, 52.125549%, 25.067139%)" offset="0.339844"/><stop stop-opacity="1" stop-color="rgb(100%, 52.333069%, 25.125122%)" offset="0.34375"/><stop stop-opacity="1" stop-color="rgb(100%, 52.540588%, 25.183105%)" offset="0.347656"/><stop stop-opacity="1" stop-color="rgb(100%, 52.748108%, 25.242615%)" offset="0.351562"/><stop stop-opacity="1" stop-color="rgb(100%, 52.954102%, 25.300598%)" offset="0.355469"/><stop stop-opacity="1" stop-color="rgb(100%, 53.161621%, 25.358582%)" offset="0.359375"/><stop stop-opacity="1" stop-color="rgb(100%, 53.369141%, 25.416565%)" offset="0.363281"/><stop stop-opacity="1" stop-color="rgb(100%, 53.57666%, 25.474548%)" offset="0.367187"/><stop stop-opacity="1" stop-color="rgb(100%, 53.782654%, 25.532532%)" offset="0.371094"/><stop stop-opacity="1" stop-color="rgb(100%, 53.990173%, 25.592041%)" offset="0.375"/><stop stop-opacity="1" stop-color="rgb(100%, 54.197693%, 25.650024%)" offset="0.378906"/><stop stop-opacity="1" stop-color="rgb(100%, 54.405212%, 25.708008%)" offset="0.382812"/><stop stop-opacity="1" stop-color="rgb(100%, 54.612732%, 25.765991%)" offset="0.386719"/><stop stop-opacity="1" stop-color="rgb(100%, 54.820251%, 25.823975%)" offset="0.390625"/><stop stop-opacity="1" stop-color="rgb(100%, 55.026245%, 25.881958%)" offset="0.394531"/><stop stop-opacity="1" stop-color="rgb(100%, 55.233765%, 25.941467%)" offset="0.398437"/><stop stop-opacity="1" stop-color="rgb(100%, 55.441284%, 25.999451%)" offset="0.402344"/><stop stop-opacity="1" stop-color="rgb(100%, 55.648804%, 26.057434%)" offset="0.40625"/><stop stop-opacity="1" stop-color="rgb(100%, 55.854797%, 26.115417%)" offset="0.410156"/><stop stop-opacity="1" stop-color="rgb(100%, 56.062317%, 26.173401%)" offset="0.414062"/><stop stop-opacity="1" stop-color="rgb(100%, 56.269836%, 26.231384%)" offset="0.417969"/><stop stop-opacity="1" stop-color="rgb(100%, 56.477356%, 26.290894%)" offset="0.421875"/><stop stop-opacity="1" stop-color="rgb(100%, 56.684875%, 26.348877%)" offset="0.425781"/><stop stop-opacity="1" stop-color="rgb(100%, 56.892395%, 26.40686%)" offset="0.429687"/><stop stop-opacity="1" stop-color="rgb(100%, 57.098389%, 26.464844%)" offset="0.433594"/><stop stop-opacity="1" stop-color="rgb(100%, 57.305908%, 26.522827%)" offset="0.4375"/><stop stop-opacity="1" stop-color="rgb(100%, 57.513428%, 26.580811%)" offset="0.441406"/><stop stop-opacity="1" stop-color="rgb(100%, 57.720947%, 26.64032%)" offset="0.445312"/><stop stop-opacity="1" stop-color="rgb(100%, 57.926941%, 26.698303%)" offset="0.449219"/><stop stop-opacity="1" stop-color="rgb(100%, 58.13446%, 26.756287%)" offset="0.453125"/><stop stop-opacity="1" stop-color="rgb(100%, 58.34198%, 26.81427%)" offset="0.457031"/><stop stop-opacity="1" stop-color="rgb(100%, 58.5495%, 26.872253%)" offset="0.460937"/><stop stop-opacity="1" stop-color="rgb(100%, 58.755493%, 26.930237%)" offset="0.464844"/><stop stop-opacity="1" stop-color="rgb(100%, 58.963013%, 26.989746%)" offset="0.46875"/><stop stop-opacity="1" stop-color="rgb(100%, 59.170532%, 27.047729%)" offset="0.472656"/><stop stop-opacity="1" stop-color="rgb(100%, 59.378052%, 27.105713%)" offset="0.476562"/><stop stop-opacity="1" stop-color="rgb(100%, 59.585571%, 27.163696%)" offset="0.480469"/><stop stop-opacity="1" stop-color="rgb(100%, 59.793091%, 27.223206%)" offset="0.484375"/><stop stop-opacity="1" stop-color="rgb(100%, 59.999084%, 27.281189%)" offset="0.488281"/><stop stop-opacity="1" stop-color="rgb(100%, 60.206604%, 27.339172%)" offset="0.492187"/><stop stop-opacity="1" stop-color="rgb(100%, 60.414124%, 27.397156%)" offset="0.496094"/><stop stop-opacity="1" stop-color="rgb(100%, 60.621643%, 27.455139%)" offset="0.5"/><stop stop-opacity="1" stop-color="rgb(100%, 60.827637%, 27.513123%)" offset="0.503906"/><stop stop-opacity="1" stop-color="rgb(100%, 61.035156%, 27.572632%)" offset="0.507812"/><stop stop-opacity="1" stop-color="rgb(100%, 61.242676%, 27.630615%)" offset="0.511719"/><stop stop-opacity="1" stop-color="rgb(100%, 61.450195%, 27.688599%)" offset="0.515625"/><stop stop-opacity="1" stop-color="rgb(100%, 61.657715%, 27.746582%)" offset="0.519531"/><stop stop-opacity="1" stop-color="rgb(100%, 61.865234%, 27.804565%)" offset="0.523438"/><stop stop-opacity="1" stop-color="rgb(100%, 62.071228%, 27.862549%)" offset="0.527344"/><stop stop-opacity="1" stop-color="rgb(100%, 62.278748%, 27.922058%)" offset="0.53125"/><stop stop-opacity="1" stop-color="rgb(100%, 62.486267%, 27.980042%)" offset="0.535156"/><stop stop-opacity="1" stop-color="rgb(100%, 62.693787%, 28.038025%)" offset="0.539062"/><stop stop-opacity="1" stop-color="rgb(100%, 62.89978%, 28.096008%)" offset="0.542969"/><stop stop-opacity="1" stop-color="rgb(100%, 63.1073%, 28.153992%)" offset="0.546875"/><stop stop-opacity="1" stop-color="rgb(100%, 63.314819%, 28.211975%)" offset="0.550781"/><stop stop-opacity="1" stop-color="rgb(100%, 63.522339%, 28.271484%)" offset="0.554687"/><stop stop-opacity="1" stop-color="rgb(100%, 63.729858%, 28.329468%)" offset="0.558594"/><stop stop-opacity="1" stop-color="rgb(100%, 63.937378%, 28.387451%)" offset="0.5625"/><stop stop-opacity="1" stop-color="rgb(100%, 64.143372%, 28.445435%)" offset="0.566406"/><stop stop-opacity="1" stop-color="rgb(100%, 64.350891%, 28.503418%)" offset="0.570312"/><stop stop-opacity="1" stop-color="rgb(100%, 64.558411%, 28.561401%)" offset="0.574219"/><stop stop-opacity="1" stop-color="rgb(100%, 64.76593%, 28.620911%)" offset="0.578125"/><stop stop-opacity="1" stop-color="rgb(100%, 64.971924%, 28.678894%)" offset="0.582031"/><stop stop-opacity="1" stop-color="rgb(100%, 65.179443%, 28.736877%)" offset="0.585938"/><stop stop-opacity="1" stop-color="rgb(100%, 65.386963%, 28.794861%)" offset="0.589844"/><stop stop-opacity="1" stop-color="rgb(100%, 65.594482%, 28.852844%)" offset="0.59375"/><stop stop-opacity="1" stop-color="rgb(100%, 65.800476%, 28.910828%)" offset="0.597656"/><stop stop-opacity="1" stop-color="rgb(100%, 66.007996%, 28.970337%)" offset="0.601562"/><stop stop-opacity="1" stop-color="rgb(100%, 66.215515%, 29.02832%)" offset="0.605469"/><stop stop-opacity="1" stop-color="rgb(100%, 66.423035%, 29.086304%)" offset="0.609375"/><stop stop-opacity="1" stop-color="rgb(100%, 66.630554%, 29.144287%)" offset="0.613281"/><stop stop-opacity="1" stop-color="rgb(100%, 66.838074%, 29.202271%)" offset="0.617188"/><stop stop-opacity="1" stop-color="rgb(100%, 67.044067%, 29.260254%)" offset="0.621094"/><stop stop-opacity="1" stop-color="rgb(100%, 67.251587%, 29.319763%)" offset="0.625"/><stop stop-opacity="1" stop-color="rgb(100%, 67.459106%, 29.377747%)" offset="0.628906"/><stop stop-opacity="1" stop-color="rgb(100%, 67.666626%, 29.43573%)" offset="0.632812"/><stop stop-opacity="1" stop-color="rgb(100%, 67.87262%, 29.493713%)" offset="0.636719"/><stop stop-opacity="1" stop-color="rgb(100%, 68.080139%, 29.553223%)" offset="0.640625"/><stop stop-opacity="1" stop-color="rgb(100%, 68.287659%, 29.611206%)" offset="0.644531"/><stop stop-opacity="1" stop-color="rgb(100%, 68.495178%, 29.669189%)" offset="0.648438"/><stop stop-opacity="1" stop-color="rgb(100%, 68.702698%, 29.727173%)" offset="0.652344"/><stop stop-opacity="1" stop-color="rgb(100%, 68.910217%, 29.785156%)" offset="0.65625"/><stop stop-opacity="1" stop-color="rgb(100%, 69.116211%, 29.84314%)" offset="0.660156"/><stop stop-opacity="1" stop-color="rgb(100%, 69.32373%, 29.902649%)" offset="0.664062"/><stop stop-opacity="1" stop-color="rgb(100%, 69.53125%, 29.960632%)" offset="0.667969"/><stop stop-opacity="1" stop-color="rgb(100%, 69.73877%, 30.018616%)" offset="0.671875"/><stop stop-opacity="1" stop-color="rgb(100%, 69.944763%, 30.076599%)" offset="0.675781"/><stop stop-opacity="1" stop-color="rgb(100%, 70.152283%, 30.134583%)" offset="0.679688"/><stop stop-opacity="1" stop-color="rgb(100%, 70.359802%, 30.192566%)" offset="0.683594"/><stop stop-opacity="1" stop-color="rgb(100%, 70.567322%, 30.252075%)" offset="0.6875"/><stop stop-opacity="1" stop-color="rgb(100%, 70.773315%, 30.310059%)" offset="0.691406"/><stop stop-opacity="1" stop-color="rgb(100%, 70.980835%, 30.368042%)" offset="0.695312"/><stop stop-opacity="1" stop-color="rgb(100%, 71.188354%, 30.426025%)" offset="0.699219"/><stop stop-opacity="1" stop-color="rgb(100%, 71.395874%, 30.484009%)" offset="0.703125"/><stop stop-opacity="1" stop-color="rgb(100%, 71.603394%, 30.541992%)" offset="0.707031"/><stop stop-opacity="1" stop-color="rgb(100%, 71.810913%, 30.601501%)" offset="0.710938"/><stop stop-opacity="1" stop-color="rgb(100%, 72.016907%, 30.659485%)" offset="0.714844"/><stop stop-opacity="1" stop-color="rgb(100%, 72.224426%, 30.717468%)" offset="0.71875"/><stop stop-opacity="1" stop-color="rgb(100%, 72.431946%, 30.775452%)" offset="0.722656"/><stop stop-opacity="1" stop-color="rgb(100%, 72.639465%, 30.833435%)" offset="0.726562"/><stop stop-opacity="1" stop-color="rgb(100%, 72.845459%, 30.891418%)" offset="0.730469"/><stop stop-opacity="1" stop-color="rgb(100%, 73.052979%, 30.950928%)" offset="0.734375"/><stop stop-opacity="1" stop-color="rgb(100%, 73.260498%, 31.008911%)" offset="0.738281"/><stop stop-opacity="1" stop-color="rgb(100%, 73.468018%, 31.066895%)" offset="0.742187"/><stop stop-opacity="1" stop-color="rgb(100%, 73.675537%, 31.124878%)" offset="0.746094"/><stop stop-opacity="1" stop-color="rgb(100%, 73.883057%, 31.182861%)" offset="0.75"/><stop stop-opacity="1" stop-color="rgb(100%, 74.08905%, 31.240845%)" offset="0.753906"/><stop stop-opacity="1" stop-color="rgb(100%, 74.29657%, 31.300354%)" offset="0.757813"/><stop stop-opacity="1" stop-color="rgb(100%, 74.504089%, 31.358337%)" offset="0.761719"/><stop stop-opacity="1" stop-color="rgb(100%, 74.711609%, 31.416321%)" offset="0.765625"/><stop stop-opacity="1" stop-color="rgb(100%, 74.917603%, 31.474304%)" offset="0.769531"/><stop stop-opacity="1" stop-color="rgb(100%, 75.125122%, 31.533813%)" offset="0.773438"/><stop stop-opacity="1" stop-color="rgb(100%, 75.332642%, 31.591797%)" offset="0.777344"/><stop stop-opacity="1" stop-color="rgb(100%, 75.540161%, 31.64978%)" offset="0.78125"/><stop stop-opacity="1" stop-color="rgb(100%, 75.747681%, 31.707764%)" offset="0.785156"/><stop stop-opacity="1" stop-color="rgb(100%, 75.9552%, 31.765747%)" offset="0.789062"/><stop stop-opacity="1" stop-color="rgb(100%, 76.161194%, 31.82373%)" offset="0.792969"/><stop stop-opacity="1" stop-color="rgb(100%, 76.368713%, 31.88324%)" offset="0.796875"/><stop stop-opacity="1" stop-color="rgb(100%, 76.576233%, 31.941223%)" offset="0.800781"/><stop stop-opacity="1" stop-color="rgb(100%, 76.783752%, 31.999207%)" offset="0.804688"/><stop stop-opacity="1" stop-color="rgb(100%, 76.989746%, 32.05719%)" offset="0.808594"/><stop stop-opacity="1" stop-color="rgb(100%, 77.197266%, 32.115173%)" offset="0.8125"/><stop stop-opacity="1" stop-color="rgb(100%, 77.404785%, 32.173157%)" offset="0.816406"/><stop stop-opacity="1" stop-color="rgb(100%, 77.612305%, 32.232666%)" offset="0.820312"/><stop stop-opacity="1" stop-color="rgb(100%, 77.818298%, 32.290649%)" offset="0.824219"/><stop stop-opacity="1" stop-color="rgb(100%, 78.025818%, 32.348633%)" offset="0.828125"/><stop stop-opacity="1" stop-color="rgb(100%, 78.233337%, 32.406616%)" offset="0.832031"/><stop stop-opacity="1" stop-color="rgb(100%, 78.440857%, 32.4646%)" offset="0.835938"/><stop stop-opacity="1" stop-color="rgb(100%, 78.648376%, 32.522583%)" offset="0.839844"/><stop stop-opacity="1" stop-color="rgb(100%, 78.855896%, 32.582092%)" offset="0.84375"/><stop stop-opacity="1" stop-color="rgb(100%, 79.06189%, 32.640076%)" offset="0.847656"/><stop stop-opacity="1" stop-color="rgb(100%, 79.269409%, 32.698059%)" offset="0.851562"/><stop stop-opacity="1" stop-color="rgb(100%, 79.476929%, 32.756042%)" offset="0.855469"/><stop stop-opacity="1" stop-color="rgb(100%, 79.684448%, 32.814026%)" offset="0.859375"/><stop stop-opacity="1" stop-color="rgb(100%, 79.890442%, 32.872009%)" offset="0.863281"/><stop stop-opacity="1" stop-color="rgb(100%, 80.097961%, 32.931519%)" offset="0.867188"/><stop stop-opacity="1" stop-color="rgb(100%, 80.305481%, 32.989502%)" offset="0.871094"/><stop stop-opacity="1" stop-color="rgb(100%, 80.513%, 33.047485%)" offset="0.875"/><stop stop-opacity="1" stop-color="rgb(100%, 80.72052%, 33.105469%)" offset="0.878906"/><stop stop-opacity="1" stop-color="rgb(100%, 80.92804%, 33.163452%)" offset="0.882812"/><stop stop-opacity="1" stop-color="rgb(100%, 81.134033%, 33.221436%)" offset="0.886719"/><stop stop-opacity="1" stop-color="rgb(100%, 81.341553%, 33.280945%)" offset="0.890625"/><stop stop-opacity="1" stop-color="rgb(100%, 81.549072%, 33.338928%)" offset="0.894531"/><stop stop-opacity="1" stop-color="rgb(100%, 81.756592%, 33.396912%)" offset="0.898438"/><stop stop-opacity="1" stop-color="rgb(100%, 81.962585%, 33.454895%)" offset="0.902344"/><stop stop-opacity="1" stop-color="rgb(100%, 82.170105%, 33.514404%)" offset="0.90625"/><stop stop-opacity="1" stop-color="rgb(100%, 82.377625%, 33.572388%)" offset="0.910156"/><stop stop-opacity="1" stop-color="rgb(100%, 82.585144%, 33.630371%)" offset="0.914062"/><stop stop-opacity="1" stop-color="rgb(100%, 82.792664%, 33.688354%)" offset="0.917969"/><stop stop-opacity="1" stop-color="rgb(100%, 83.000183%, 33.746338%)" offset="0.921875"/><stop stop-opacity="1" stop-color="rgb(100%, 83.206177%, 33.804321%)" offset="0.925781"/><stop stop-opacity="1" stop-color="rgb(100%, 83.413696%, 33.863831%)" offset="0.929688"/><stop stop-opacity="1" stop-color="rgb(100%, 83.621216%, 33.921814%)" offset="0.933594"/><stop stop-opacity="1" stop-color="rgb(100%, 83.828735%, 33.979797%)" offset="0.9375"/><stop stop-opacity="1" stop-color="rgb(100%, 84.034729%, 34.037781%)" offset="0.941406"/><stop stop-opacity="1" stop-color="rgb(100%, 84.242249%, 34.095764%)" offset="0.945313"/><stop stop-opacity="1" stop-color="rgb(100%, 84.449768%, 34.153748%)" offset="0.949219"/><stop stop-opacity="1" stop-color="rgb(100%, 84.657288%, 34.213257%)" offset="0.953125"/><stop stop-opacity="1" stop-color="rgb(100%, 84.863281%, 34.27124%)" offset="0.957031"/><stop stop-opacity="1" stop-color="rgb(100%, 85.070801%, 34.329224%)" offset="0.960938"/><stop stop-opacity="1" stop-color="rgb(100%, 85.27832%, 34.387207%)" offset="0.964844"/><stop stop-opacity="1" stop-color="rgb(100%, 85.48584%, 34.44519%)" offset="0.96875"/><stop stop-opacity="1" stop-color="rgb(100%, 85.693359%, 34.503174%)" offset="0.972656"/><stop stop-opacity="1" stop-color="rgb(100%, 85.900879%, 34.562683%)" offset="0.976562"/><stop stop-opacity="1" stop-color="rgb(100%, 86.106873%, 34.620667%)" offset="0.980469"/><stop stop-opacity="1" stop-color="rgb(100%, 86.314392%, 34.67865%)" offset="0.984375"/><stop stop-opacity="1" stop-color="rgb(100%, 86.521912%, 34.736633%)" offset="0.988281"/><stop stop-opacity="1" stop-color="rgb(100%, 86.729431%, 34.794617%)" offset="0.992188"/><stop stop-opacity="1" stop-color="rgb(100%, 86.914062%, 34.846497%)" offset="1"/></linearGradient></defs><g clip-path="url(#3cce82751e)"><g clip-path="url(#ef26a31156)"><path fill="#ffffff" d="M 29.8125 29.8125 L 345.1875 29.8125 L 345.1875 345.1875 L 29.8125 345.1875 Z M 29.8125 29.8125 " fill-opacity="1" fill-rule="nonzero"/></g></g><g clip-path="url(#0a9f3f02aa)"><g clip-path="url(#91cd4d2483)"><path fill="url(#d490f787ca)" d="M 103.054688 153.574219 L 103.054688 221.421875 L 271.804688 221.421875 L 271.804688 153.574219 Z M 103.054688 153.574219 " fill-rule="nonzero"/></g></g><g fill="#ffffff" fill-opacity="1"><g transform="translate(105.687722, 276.117188)"><g><path d="M -12.859375 -3.390625 L -10.328125 -3.34375 L -6.125 -7.015625 L -1.203125 -1.375 L -18.1875 13.453125 L -23.109375 7.8125 L -16.9375 2.421875 L -27.96875 2.234375 L -33.40625 -4 L -20.015625 -3.734375 L -16.71875 -19.171875 L -10.953125 -12.546875 Z M -12.859375 -3.390625 "/></g></g></g><g fill="#ffffff" fill-opacity="1"><g transform="translate(89.459712, 257.263496)"><g><path d="M -15.234375 -14.96875 L -10.265625 -17.828125 L -0.90625 -1.578125 L -20.4375 9.671875 L -29.59375 -6.21875 L -24.625 -9.078125 L -19.21875 0.328125 L -16.9375 -0.984375 L -21.6875 -9.25 L -16.9375 -11.984375 L -12.1875 -3.71875 L -9.625 -5.203125 Z M -15.234375 -14.96875 "/></g></g></g><g fill="#ffffff" fill-opacity="1"><g transform="translate(78.498703, 238.119467)"><g><path d="M -2.9375 -9.8125 C -2.3125 -8.0625 -1.898438 -6.28125 -1.703125 -4.46875 C -1.503906 -2.65625 -1.546875 -1.097656 -1.828125 0.203125 L -7.875 -0.234375 C -7.644531 -1.460938 -7.578125 -2.765625 -7.671875 -4.140625 C -7.765625 -5.523438 -8.019531 -6.796875 -8.4375 -7.953125 C -8.789062 -8.941406 -9.132812 -9.613281 -9.46875 -9.96875 C -9.800781 -10.320312 -10.160156 -10.429688 -10.546875 -10.296875 C -10.992188 -10.128906 -11.234375 -9.726562 -11.265625 -9.09375 C -11.296875 -8.46875 -11.210938 -7.46875 -11.015625 -6.09375 C -10.773438 -4.34375 -10.660156 -2.847656 -10.671875 -1.609375 C -10.679688 -0.378906 -10.988281 0.800781 -11.59375 1.9375 C -12.207031 3.070312 -13.28125 3.910156 -14.8125 4.453125 C -16.144531 4.921875 -17.492188 4.972656 -18.859375 4.609375 C -20.222656 4.253906 -21.484375 3.441406 -22.640625 2.171875 C -23.796875 0.910156 -24.75 -0.773438 -25.5 -2.890625 C -26.019531 -4.359375 -26.375 -5.847656 -26.5625 -7.359375 C -26.75 -8.878906 -26.722656 -10.28125 -26.484375 -11.5625 L -20.53125 -11.265625 C -20.84375 -8.804688 -20.671875 -6.644531 -20.015625 -4.78125 C -19.359375 -2.9375 -18.585938 -2.175781 -17.703125 -2.5 C -17.273438 -2.644531 -17.050781 -3.03125 -17.03125 -3.65625 C -17.007812 -4.28125 -17.101562 -5.265625 -17.3125 -6.609375 C -17.582031 -8.328125 -17.710938 -9.8125 -17.703125 -11.0625 C -17.703125 -12.3125 -17.40625 -13.503906 -16.8125 -14.640625 C -16.21875 -15.785156 -15.148438 -16.628906 -13.609375 -17.171875 C -12.273438 -17.648438 -10.929688 -17.707031 -9.578125 -17.34375 C -8.234375 -16.976562 -6.976562 -16.164062 -5.8125 -14.90625 C -4.65625 -13.644531 -3.695312 -11.945312 -2.9375 -9.8125 Z M -2.9375 -9.8125 "/></g></g></g><g fill="#ffffff" fill-opacity="1"><g transform="translate(71.141181, 218.020028)"><g><path d="M -25.75 -20.59375 L -3.4375 -23.8125 L -2.359375 -16.28125 L -10.59375 -15.09375 L -9.578125 -8.15625 L -1.34375 -9.34375 L -0.265625 -1.8125 L -22.578125 1.40625 L -23.65625 -6.125 L -15.75 -7.265625 L -16.765625 -14.203125 L -24.671875 -13.0625 Z M -25.75 -20.59375 "/></g></g></g><g fill="#ffffff" fill-opacity="1"><g transform="translate(67.434789, 192.359518)"><g><path d="M -2.671875 -17.4375 L -3.28125 -8.890625 L 0.515625 -7.09375 L -0.046875 0.609375 L -21.8125 -10.84375 L -21.28125 -18.296875 L 1.921875 -26.5 L 1.34375 -18.65625 Z M -8.28125 -15.734375 L -14.09375 -13.96875 L -8.59375 -11.359375 Z M -8.28125 -15.734375 "/></g></g></g><g fill="#ffffff" fill-opacity="1"><g transform="translate(69.352956, 166.417509)"><g><path d="M -14.3125 -31.234375 L 4.625 -15.71875 L 2.515625 -8.5625 L -21.796875 -5.78125 L -19.5 -13.609375 L -5.34375 -15.0625 L -16.421875 -24.0625 Z M -14.3125 -31.234375 "/></g></g></g><g fill="#ffffff" fill-opacity="1"><g transform="translate(77.295144, 141.683019)"><g/></g></g><g fill="#ffffff" fill-opacity="1"><g transform="translate(81.308642, 132.007198)"><g><path d="M -11.8125 -23.015625 C -10.664062 -24.742188 -9.378906 -26.066406 -7.953125 -26.984375 C -6.535156 -27.898438 -5.054688 -28.347656 -3.515625 -28.328125 C -1.972656 -28.316406 -0.488281 -27.84375 0.9375 -26.90625 C 2.375 -25.957031 3.394531 -24.773438 4 -23.359375 C 4.613281 -21.953125 4.785156 -20.410156 4.515625 -18.734375 C 4.242188 -17.066406 3.535156 -15.367188 2.390625 -13.640625 L 0.59375 -10.921875 L 5.203125 -7.875 L 1 -1.53125 L -17.8125 -13.953125 Z M -2.796875 -16.46875 C -2.222656 -17.320312 -1.984375 -18.09375 -2.078125 -18.78125 C -2.179688 -19.46875 -2.582031 -20.046875 -3.28125 -20.515625 C -3.976562 -20.972656 -4.660156 -21.113281 -5.328125 -20.9375 C -6.003906 -20.757812 -6.628906 -20.242188 -7.203125 -19.390625 L -8.71875 -17.078125 L -4.3125 -14.15625 Z M -2.796875 -16.46875 "/></g></g></g><g fill="#ffffff" fill-opacity="1"><g transform="translate(94.487849, 111.887323)"><g><path d="M 9.5 -14.875 L 3.390625 -8.859375 L 5.0625 -5 L -0.4375 0.421875 L -9.25 -22.546875 L -3.921875 -27.78125 L 18.90625 -18.65625 L 13.3125 -13.140625 Z M 4.140625 -17.3125 L -1.40625 -19.796875 L 1.015625 -14.234375 Z M 4.140625 -17.3125 "/></g></g></g><g fill="#ffffff" fill-opacity="1"><g transform="translate(113.116876, 93.666975)"><g><path d="M 11.640625 -6.84375 C 9.640625 -5.5625 7.5625 -4.828125 5.40625 -4.640625 C 3.257812 -4.453125 1.25 -4.816406 -0.625 -5.734375 C -2.5 -6.648438 -4.050781 -8.066406 -5.28125 -9.984375 C -6.507812 -11.898438 -7.148438 -13.90625 -7.203125 -16 C -7.265625 -18.101562 -6.757812 -20.09375 -5.6875 -21.96875 C -4.625 -23.84375 -3.09375 -25.421875 -1.09375 -26.703125 C 0.75 -27.890625 2.601562 -28.617188 4.46875 -28.890625 C 6.34375 -29.160156 8.140625 -28.984375 9.859375 -28.359375 L 8.140625 -22.171875 C 6.015625 -22.898438 4.15625 -22.75 2.5625 -21.71875 C 1.226562 -20.863281 0.425781 -19.742188 0.15625 -18.359375 C -0.101562 -16.984375 0.226562 -15.570312 1.15625 -14.125 C 2.082031 -12.675781 3.226562 -11.785156 4.59375 -11.453125 C 5.957031 -11.117188 7.304688 -11.378906 8.640625 -12.234375 C 10.234375 -13.265625 11.144531 -14.894531 11.375 -17.125 L 17.71875 -16.125 C 17.570312 -14.28125 16.984375 -12.566406 15.953125 -10.984375 C 14.921875 -9.410156 13.484375 -8.03125 11.640625 -6.84375 Z M 11.640625 -6.84375 "/></g></g></g><g fill="#ffffff" fill-opacity="1"><g transform="translate(133.41732, 80.631348)"><g><path d="M 7.609375 -10.921875 L 6.6875 -8.546875 L 8.6875 -3.34375 L 1.703125 -0.65625 L -6.375 -21.703125 L 0.609375 -24.390625 L 3.546875 -16.75 L 7.53125 -27.046875 L 15.25 -30 L 10.375 -17.5 L 23.75 -9.125 L 15.546875 -5.96875 Z M 7.609375 -10.921875 "/></g></g></g><g fill="#ffffff" fill-opacity="1"><g transform="translate(156.69665, 71.870379)"><g><path d="M 19.296875 -9.171875 L 20.28125 -3.515625 L 1.796875 -0.3125 L -2.0625 -22.53125 L 16 -25.671875 L 16.984375 -20.015625 L 6.296875 -18.15625 L 6.75 -15.5625 L 16.140625 -17.1875 L 17.078125 -11.78125 L 7.6875 -10.15625 L 8.1875 -7.25 Z M 19.296875 -9.171875 "/></g></g></g><g fill="#ffffff" fill-opacity="1"><g transform="translate(178.319324, 68.030665)"><g><path d="M 11.609375 -5.4375 L 9.546875 -5.484375 L 9.4375 0.1875 L 1.828125 0.03125 L 2.28125 -22.515625 L 13.140625 -22.28125 C 15.222656 -22.238281 17.03125 -21.859375 18.5625 -21.140625 C 20.101562 -20.421875 21.273438 -19.40625 22.078125 -18.09375 C 22.890625 -16.789062 23.273438 -15.285156 23.234375 -13.578125 C 23.203125 -11.960938 22.804688 -10.5625 22.046875 -9.375 C 21.296875 -8.1875 20.226562 -7.253906 18.84375 -6.578125 L 23.4375 0.484375 L 15.328125 0.3125 Z M 15.578125 -13.734375 C 15.597656 -14.566406 15.351562 -15.21875 14.84375 -15.6875 C 14.34375 -16.164062 13.578125 -16.414062 12.546875 -16.4375 L 9.78125 -16.5 L 9.671875 -11.21875 L 12.4375 -11.15625 C 13.46875 -11.132812 14.242188 -11.347656 14.765625 -11.796875 C 15.296875 -12.242188 15.566406 -12.890625 15.578125 -13.734375 Z M 15.578125 -13.734375 "/></g></g></g><g fill="#ffffff" fill-opacity="1"><g transform="translate(202.586219, 68.687713)"><g><path d="M 9.90625 2.640625 C 8.070312 2.253906 6.332031 1.671875 4.6875 0.890625 C 3.050781 0.109375 1.75 -0.738281 0.78125 -1.65625 L 4.328125 -6.59375 C 5.253906 -5.75 6.328125 -5.003906 7.546875 -4.359375 C 8.773438 -3.722656 9.988281 -3.273438 11.1875 -3.015625 C 12.21875 -2.796875 12.972656 -2.738281 13.453125 -2.84375 C 13.929688 -2.945312 14.210938 -3.195312 14.296875 -3.59375 C 14.398438 -4.0625 14.1875 -4.46875 13.65625 -4.8125 C 13.132812 -5.164062 12.242188 -5.625 10.984375 -6.1875 C 9.347656 -6.90625 8.003906 -7.585938 6.953125 -8.234375 C 5.910156 -8.890625 5.066406 -9.773438 4.421875 -10.890625 C 3.785156 -12.015625 3.640625 -13.367188 3.984375 -14.953125 C 4.273438 -16.335938 4.929688 -17.515625 5.953125 -18.484375 C 6.984375 -19.453125 8.335938 -20.09375 10.015625 -20.40625 C 11.703125 -20.726562 13.644531 -20.65625 15.84375 -20.1875 C 17.363281 -19.863281 18.8125 -19.382812 20.1875 -18.75 C 21.570312 -18.113281 22.753906 -17.359375 23.734375 -16.484375 L 20.359375 -11.59375 C 18.429688 -13.144531 16.5 -14.128906 14.5625 -14.546875 C 12.65625 -14.953125 11.601562 -14.691406 11.40625 -13.765625 C 11.3125 -13.328125 11.523438 -12.929688 12.046875 -12.578125 C 12.566406 -12.234375 13.453125 -11.800781 14.703125 -11.28125 C 16.304688 -10.613281 17.640625 -9.945312 18.703125 -9.28125 C 19.765625 -8.613281 20.625 -7.726562 21.28125 -6.625 C 21.945312 -5.53125 22.109375 -4.179688 21.765625 -2.578125 C 21.460938 -1.191406 20.800781 -0.0234375 19.78125 0.921875 C 18.769531 1.878906 17.421875 2.519531 15.734375 2.84375 C 14.054688 3.175781 12.113281 3.109375 9.90625 2.640625 Z M 9.90625 2.640625 "/></g></g></g><g fill="#ffffff" fill-opacity="1"><g transform="translate(224.013172, 73.72779)"><g/></g></g><g fill="#ffffff" fill-opacity="1"><g transform="translate(233.982431, 76.718036)"><g><path d="M 16.96875 4.8125 L 9.4375 0.703125 L 6.234375 3.40625 L -0.53125 -0.296875 L 18.921875 -15.34375 L 25.484375 -11.765625 L 23.296875 12.75 L 16.40625 8.96875 Z M 17.765625 -1 L 18.5625 -7.046875 L 13.921875 -3.109375 Z M 17.765625 -1 "/></g></g></g><g fill="#ffffff" fill-opacity="1"><g transform="translate(256.783671, 89.199925)"><g><path d="M 32.9375 -1.203125 L 18.140625 15.796875 L 13.4375 11.703125 L 13.6875 -1.640625 L 6.96875 6.078125 L 1.375 1.203125 L 16.171875 -15.796875 L 20.890625 -11.703125 L 20.640625 1.65625 L 27.359375 -6.0625 Z M 32.9375 -1.203125 "/></g></g></g><g fill="#ffffff" fill-opacity="1"><g transform="translate(276.350319, 106.18291)"><g><path d="M 19.234375 -11.921875 L 25.84375 -2.96875 C 27.332031 -0.945312 28.28125 1.101562 28.6875 3.1875 C 29.09375 5.28125 28.925781 7.253906 28.1875 9.109375 C 27.457031 10.972656 26.164062 12.59375 24.3125 13.96875 C 22.46875 15.320312 20.546875 16.078125 18.546875 16.234375 C 16.554688 16.390625 14.625 15.960938 12.75 14.953125 C 10.875 13.953125 9.191406 12.441406 7.703125 10.421875 L 1.09375 1.46875 Z M 12.265625 6.640625 C 13.234375 7.953125 14.382812 8.722656 15.71875 8.953125 C 17.050781 9.179688 18.394531 8.796875 19.75 7.796875 C 21.113281 6.785156 21.878906 5.609375 22.046875 4.265625 C 22.222656 2.921875 21.828125 1.59375 20.859375 0.28125 L 18.96875 -2.28125 L 10.375 4.078125 Z M 12.265625 6.640625 "/></g></g></g><g fill="#ffffff" fill-opacity="1"><g transform="translate(291.937522, 128.48375)"><g/></g></g><g fill="#ffffff" fill-opacity="1"><g transform="translate(297.419052, 137.164801)"><g><path d="M 6.65625 20.9375 L 16.40625 17.75 L 7.078125 15.59375 L 6.078125 12.40625 L 12.109375 5.359375 L 2.65625 8.359375 L 0.546875 1.75 L 22.03125 -5.078125 L 23.921875 0.875 L 14.703125 11.515625 L 28.3125 14.6875 L 30.203125 20.640625 L 8.75 27.53125 Z M 6.65625 20.9375 "/></g></g></g><g fill="#ffffff" fill-opacity="1"><g transform="translate(306.481194, 166.292506)"><g><path d="M 0.40625 13.65625 C 0.25 11.238281 0.609375 9.03125 1.484375 7.03125 C 2.359375 5.03125 3.648438 3.425781 5.359375 2.21875 C 7.078125 1.007812 9.054688 0.328125 11.296875 0.171875 C 13.554688 0.015625 15.613281 0.421875 17.46875 1.390625 C 19.332031 2.359375 20.835938 3.773438 21.984375 5.640625 C 23.128906 7.503906 23.78125 9.644531 23.9375 12.0625 C 24.101562 14.476562 23.75 16.6875 22.875 18.6875 C 22 20.6875 20.703125 22.289062 18.984375 23.5 C 17.273438 24.707031 15.289062 25.390625 13.03125 25.546875 C 10.789062 25.703125 8.738281 25.296875 6.875 24.328125 C 5.019531 23.359375 3.519531 21.941406 2.375 20.078125 C 1.226562 18.210938 0.570312 16.070312 0.40625 13.65625 Z M 6.546875 13.234375 C 6.617188 14.179688 6.910156 15.015625 7.421875 15.734375 C 7.929688 16.460938 8.625 17.019531 9.5 17.40625 C 10.375 17.800781 11.375 17.960938 12.5 17.890625 C 13.644531 17.804688 14.625 17.507812 15.4375 17 C 16.257812 16.5 16.875 15.851562 17.28125 15.0625 C 17.6875 14.28125 17.851562 13.414062 17.78125 12.46875 C 17.71875 11.519531 17.429688 10.679688 16.921875 9.953125 C 16.410156 9.234375 15.71875 8.675781 14.84375 8.28125 C 13.96875 7.882812 12.957031 7.726562 11.8125 7.8125 C 10.6875 7.882812 9.710938 8.175781 8.890625 8.6875 C 8.078125 9.195312 7.46875 9.84375 7.0625 10.625 C 6.65625 11.414062 6.484375 12.285156 6.546875 13.234375 Z M 6.546875 13.234375 "/></g></g></g><g fill="#ffffff" fill-opacity="1"><g transform="translate(308.231739, 193.54006)"><g><path d="M 18.40625 29.015625 L -2.453125 16.203125 L -1.34375 8.828125 L 22.390625 2.78125 L 21.15625 10.875 L 7.328125 14.21875 L 19.53125 21.640625 Z M 18.40625 29.015625 "/></g></g></g><g fill="#ffffff" fill-opacity="1"><g transform="translate(304.197871, 218.742811)"><g><path d="M -1.625 21.296875 L -7.015625 19.34375 L -0.625 1.71875 L 20.5625 9.40625 L 14.3125 26.640625 L 8.921875 24.6875 L 12.625 14.484375 L 10.15625 13.578125 L 6.90625 22.546875 L 1.75 20.6875 L 5 11.71875 L 2.21875 10.703125 Z M -1.625 21.296875 "/></g></g></g><g fill="#ffffff" fill-opacity="1"><g transform="translate(296.788809, 239.414426)"><g><path d="M -1.0625 12.78125 L 0 11.015625 L -4.859375 8.09375 L -0.9375 1.5625 L 18.390625 13.15625 L 12.796875 22.46875 C 11.722656 24.257812 10.492188 25.640625 9.109375 26.609375 C 7.734375 27.585938 6.273438 28.101562 4.734375 28.15625 C 3.203125 28.207031 1.703125 27.789062 0.234375 26.90625 C -1.148438 26.082031 -2.171875 25.046875 -2.828125 23.796875 C -3.484375 22.554688 -3.757812 21.160156 -3.65625 19.609375 L -12.0625 20.09375 L -7.890625 13.140625 Z M 4.171875 20.34375 C 4.890625 20.78125 5.578125 20.894531 6.234375 20.6875 C 6.898438 20.476562 7.5 19.929688 8.03125 19.046875 L 9.453125 16.671875 L 4.921875 13.96875 L 3.5 16.34375 C 2.96875 17.226562 2.765625 18.007812 2.890625 18.6875 C 3.015625 19.363281 3.441406 19.914062 4.171875 20.34375 Z M 4.171875 20.34375 "/></g></g></g><g fill="#ffffff" fill-opacity="1"><g transform="translate(284.159262, 260.149011)"><g><path d="M -7.21875 7.28125 C -5.976562 5.882812 -4.609375 4.664062 -3.109375 3.625 C -1.617188 2.582031 -0.226562 1.878906 1.0625 1.515625 L 3.5625 7.03125 C 2.375 7.414062 1.195312 7.976562 0.03125 8.71875 C -1.132812 9.46875 -2.125 10.300781 -2.9375 11.21875 C -3.644531 12 -4.070312 12.625 -4.21875 13.09375 C -4.363281 13.5625 -4.285156 13.929688 -3.984375 14.203125 C -3.628906 14.515625 -3.164062 14.53125 -2.59375 14.25 C -2.03125 13.96875 -1.191406 13.414062 -0.078125 12.59375 C 1.347656 11.539062 2.601562 10.71875 3.6875 10.125 C 4.769531 9.539062 5.953125 9.25 7.234375 9.25 C 8.523438 9.25 9.78125 9.789062 11 10.875 C 12.050781 11.820312 12.742188 12.976562 13.078125 14.34375 C 13.410156 15.71875 13.296875 17.210938 12.734375 18.828125 C 12.179688 20.453125 11.15625 22.101562 9.65625 23.78125 C 8.613281 24.9375 7.472656 25.957031 6.234375 26.84375 C 5.003906 27.726562 3.765625 28.378906 2.515625 28.796875 L -0.0625 23.421875 C 2.25 22.515625 4.066406 21.328125 5.390625 19.859375 C 6.679688 18.410156 6.972656 17.375 6.265625 16.75 C 5.929688 16.445312 5.484375 16.429688 4.921875 16.703125 C 4.367188 16.984375 3.554688 17.539062 2.484375 18.375 C 1.097656 19.4375 -0.140625 20.265625 -1.234375 20.859375 C -2.335938 21.453125 -3.53125 21.753906 -4.8125 21.765625 C -6.101562 21.785156 -7.359375 21.25 -8.578125 20.15625 C -9.628906 19.21875 -10.316406 18.070312 -10.640625 16.71875 C -10.960938 15.363281 -10.847656 13.867188 -10.296875 12.234375 C -9.753906 10.609375 -8.726562 8.957031 -7.21875 7.28125 Z M -7.21875 7.28125 "/></g></g></g><g fill="#ff5733" fill-opacity="1"><g transform="translate(98.921469, 299.034689)"><g><path d="M 10.5 -4.265625 L 9.078125 -2.484375 L 13.390625 0.953125 L 11.296875 3.578125 L 6.984375 0.140625 L 4.34375 3.453125 L 0.84375 0.671875 L 9.09375 -9.671875 L 17.5 -2.96875 L 15.40625 -0.34375 Z M 10.5 -4.265625 "/></g></g></g><g fill="#ff5733" fill-opacity="1"><g transform="translate(110.530743, 308.199699)"><g><path d="M 9.8125 3.3125 L 5.53125 0.6875 L 3.546875 2.1875 L -0.3125 -0.1875 L 11.5625 -8.4375 L 15.296875 -6.140625 L 13.28125 8.171875 L 9.359375 5.75 Z M 10.4375 -0.0625 L 11.078125 -3.5625 L 8.25 -1.40625 Z M 10.4375 -0.0625 "/></g></g></g><g fill="#ff5733" fill-opacity="1"><g transform="translate(125.863024, 317.335057)"><g><path d="M 5.34375 2.765625 C 4.351562 2.304688 3.4375 1.75 2.59375 1.09375 C 1.75 0.445312 1.109375 -0.203125 0.671875 -0.859375 L 3.328125 -3.21875 C 3.742188 -2.625 4.257812 -2.0625 4.875 -1.53125 C 5.488281 -1.007812 6.125 -0.597656 6.78125 -0.296875 C 7.34375 -0.046875 7.769531 0.078125 8.0625 0.078125 C 8.351562 0.0859375 8.546875 -0.015625 8.640625 -0.234375 C 8.765625 -0.484375 8.695312 -0.742188 8.4375 -1.015625 C 8.1875 -1.296875 7.734375 -1.671875 7.078125 -2.140625 C 6.242188 -2.765625 5.566406 -3.332031 5.046875 -3.84375 C 4.523438 -4.351562 4.148438 -4.96875 3.921875 -5.6875 C 3.691406 -6.40625 3.78125 -7.195312 4.1875 -8.0625 C 4.53125 -8.820312 5.054688 -9.410156 5.765625 -9.828125 C 6.472656 -10.253906 7.328125 -10.453125 8.328125 -10.421875 C 9.328125 -10.398438 10.4375 -10.113281 11.65625 -9.5625 C 12.476562 -9.1875 13.25 -8.726562 13.96875 -8.1875 C 14.6875 -7.644531 15.269531 -7.0625 15.71875 -6.4375 L 13.15625 -4.0625 C 12.238281 -5.195312 11.253906 -6.003906 10.203125 -6.484375 C 9.160156 -6.960938 8.519531 -6.945312 8.28125 -6.4375 C 8.175781 -6.195312 8.25 -5.945312 8.5 -5.6875 C 8.757812 -5.4375 9.207031 -5.078125 9.84375 -4.609375 C 10.6875 -4.015625 11.367188 -3.460938 11.890625 -2.953125 C 12.421875 -2.441406 12.804688 -1.828125 13.046875 -1.109375 C 13.285156 -0.390625 13.207031 0.40625 12.8125 1.28125 C 12.457031 2.039062 11.929688 2.628906 11.234375 3.046875 C 10.535156 3.460938 9.679688 3.65625 8.671875 3.625 C 7.660156 3.601562 6.550781 3.316406 5.34375 2.765625 Z M 5.34375 2.765625 "/></g></g></g><g fill="#ff5733" fill-opacity="1"><g transform="translate(139.535279, 323.426411)"><g><path d="M 6.796875 -8.0625 L 3.125 -9.265625 L 4.203125 -12.546875 L 15.8125 -8.734375 L 14.734375 -5.453125 L 11.03125 -6.671875 L 7.984375 2.625 L 3.75 1.234375 Z M 6.796875 -8.0625 "/></g></g></g><g fill="#ff5733" fill-opacity="1"><g transform="translate(153.618773, 327.797048)"><g/></g></g><g fill="#ff5733" fill-opacity="1"><g transform="translate(161.516028, 329.779988)"><g><path d="M 10.3125 -0.921875 L 5.328125 -1.609375 L 4.140625 0.5625 L -0.359375 -0.046875 L 7.171875 -12.375 L 11.515625 -11.78125 L 15.453125 2.109375 L 10.875 1.484375 Z M 9.53125 -4.265625 L 8.71875 -7.734375 L 6.984375 -4.609375 Z M 9.53125 -4.265625 "/></g></g></g><g fill="#ff5733" fill-opacity="1"><g transform="translate(179.293593, 332.034017)"><g><path d="M 14.15625 -13.1875 L 14.125 0.046875 L 10.453125 0.03125 L 5.4375 -6 L 5.421875 0.015625 L 1.078125 0 L 1.109375 -13.234375 L 4.78125 -13.21875 L 9.796875 -7.1875 L 9.8125 -13.203125 Z M 14.15625 -13.1875 "/></g></g></g><g fill="#ff5733" fill-opacity="1"><g transform="translate(197.185516, 331.917347)"><g><path d="M -0.671875 -13.265625 L 5.796875 -14.125 C 7.265625 -14.320312 8.59375 -14.226562 9.78125 -13.84375 C 10.96875 -13.457031 11.929688 -12.8125 12.671875 -11.90625 C 13.421875 -11 13.882812 -9.878906 14.0625 -8.546875 C 14.238281 -7.203125 14.082031 -5.992188 13.59375 -4.921875 C 13.113281 -3.859375 12.347656 -2.988281 11.296875 -2.3125 C 10.253906 -1.632812 9 -1.195312 7.53125 -1 L 1.0625 -0.140625 Z M 6.890625 -4.421875 C 7.835938 -4.546875 8.554688 -4.914062 9.046875 -5.53125 C 9.546875 -6.15625 9.726562 -6.960938 9.59375 -7.953125 C 9.46875 -8.929688 9.082031 -9.65625 8.4375 -10.125 C 7.800781 -10.59375 7.007812 -10.765625 6.0625 -10.640625 L 4.21875 -10.40625 L 5.046875 -4.1875 Z M 6.890625 -4.421875 "/></g></g></g><g fill="#ff5733" fill-opacity="1"><g transform="translate(215.04507, 329.181481)"><g/></g></g><g fill="#ff5733" fill-opacity="1"><g transform="translate(222.913103, 327.38629)"><g><path d="M 5.8125 -1.578125 C 4.769531 -1.242188 3.710938 -1.03125 2.640625 -0.9375 C 1.578125 -0.851562 0.664062 -0.90625 -0.09375 -1.09375 L 0.28125 -4.609375 C 0.976562 -4.460938 1.734375 -4.398438 2.546875 -4.421875 C 3.359375 -4.453125 4.109375 -4.582031 4.796875 -4.8125 C 5.378906 -5 5.78125 -5.191406 6 -5.390625 C 6.21875 -5.585938 6.285156 -5.800781 6.203125 -6.03125 C 6.117188 -6.300781 5.890625 -6.445312 5.515625 -6.46875 C 5.148438 -6.488281 4.566406 -6.457031 3.765625 -6.375 C 2.722656 -6.269531 1.835938 -6.222656 1.109375 -6.234375 C 0.390625 -6.253906 -0.289062 -6.453125 -0.9375 -6.828125 C -1.59375 -7.210938 -2.070312 -7.859375 -2.375 -8.765625 C -2.632812 -9.566406 -2.644531 -10.359375 -2.40625 -11.140625 C -2.175781 -11.929688 -1.679688 -12.65625 -0.921875 -13.3125 C -0.171875 -13.96875 0.835938 -14.5 2.109375 -14.90625 C 2.972656 -15.1875 3.847656 -15.367188 4.734375 -15.453125 C 5.628906 -15.546875 6.445312 -15.519531 7.1875 -15.375 L 6.9375 -11.875 C 5.488281 -12.101562 4.210938 -12.035156 3.109375 -11.671875 C 2.023438 -11.316406 1.570312 -10.875 1.75 -10.34375 C 1.832031 -10.09375 2.050781 -9.957031 2.40625 -9.9375 C 2.769531 -9.914062 3.347656 -9.957031 4.140625 -10.0625 C 5.148438 -10.195312 6.023438 -10.253906 6.765625 -10.234375 C 7.503906 -10.210938 8.203125 -10.015625 8.859375 -9.640625 C 9.515625 -9.265625 9.992188 -8.625 10.296875 -7.71875 C 10.546875 -6.925781 10.550781 -6.140625 10.3125 -5.359375 C 10.082031 -4.578125 9.585938 -3.851562 8.828125 -3.1875 C 8.078125 -2.53125 7.070312 -1.992188 5.8125 -1.578125 Z M 5.8125 -1.578125 "/></g></g></g><g fill="#ff5733" fill-opacity="1"><g transform="translate(237.192535, 322.657599)"><g><path d="M 8.15625 -6.375 L 3.609375 -4.234375 L 3.78125 -1.765625 L -0.328125 0.15625 L -0.703125 -14.28125 L 3.28125 -16.140625 L 14.125 -6.609375 L 9.953125 -4.65625 Z M 5.703125 -8.75 L 3.109375 -11.21875 L 3.375 -7.671875 Z M 5.703125 -8.75 "/></g></g></g><g fill="#ff5733" fill-opacity="1"><g transform="translate(253.246949, 314.875066)"><g><path d="M -0.53125 -11.3125 L 0.671875 -9.375 L 5.34375 -12.296875 L 7.125 -9.453125 L 2.453125 -6.53125 L 4.703125 -2.9375 L 0.921875 -0.578125 L -6.09375 -11.796875 L 3.015625 -17.484375 L 4.796875 -14.640625 Z M -0.53125 -11.3125 "/></g></g></g><g fill="#ff5733" fill-opacity="1"><g transform="translate(265.663574, 306.957166)"><g><path d="M 7.375 -10.125 L 9.46875 -7.5 L 0.84375 -0.671875 L -7.375 -11.046875 L 1.046875 -17.71875 L 3.125 -15.078125 L -1.859375 -11.140625 L -0.890625 -9.921875 L 3.5 -13.390625 L 5.5 -10.875 L 1.109375 -7.40625 L 2.1875 -6.03125 Z M 7.375 -10.125 "/></g></g></g></svg>