<svg xmlns="http://www.w3.org/2000/svg" width="1004.72188" height="420.71758" viewBox="0 0 1004.72188 420.71758"
    xmlns:xlink="http://www.w3.org/1999/xlink" role="img" artist="Katerina Limpitsouni" source="https://undraw.co/">
    <g>
        <path d="M757.09802,180.94371V102.59987c0-7.81156,6.35475-14.16632,14.16632-14.16632h51.2514c7.81156,0,14.16632,6.35475,14.16632,14.16632v78.34384c0,7.81156-6.35475,14.16632-14.16632,14.16632h-51.2514c-7.81156,0-14.16632-6.35475-14.16632-14.16632Z" fill="#FFC107" class="cargo"/>
        <rect x="783.34382" y="115.52599" width="27.09244" height="6.77311" transform="translate(1593.78007 237.82509) rotate(-180)" fill="#3f3d56"/>
        <rect x="790.11693" y="88.43355" width="13.54622" height="22.01261" transform="translate(1593.78007 198.87971) rotate(-180)" fill="#3f3d56"/>
        <rect x="790.11693" y="173.09742" width="13.54622" height="22.01261" transform="translate(1593.78007 368.20744) rotate(-180)" fill="#3f3d56"/>
    </g>
    <g>
        <path d="M720.69221,184.11002h-78.34384c-7.81156,0-14.16632-6.35475-14.16632-14.16632v-51.2514c0-7.81156,6.35475-14.16632,14.16632-14.16632h78.34384c7.81156,0,14.16632,6.35475,14.16632,14.16632v51.2514c0,7.81156-6.35475,14.16632-14.16632,14.16632Z" fill="#FFC107" class="cargo"/>
        <rect x="669.66735" y="115.53229" width="27.09244" height="6.77311" fill="#3f3d56"/>
        <rect x="632.41525" y="133.3117" width="13.54622" height="22.01261" transform="translate(783.50636 -494.87035) rotate(90)" fill="#3f3d56"/>
        <rect x="717.07911" y="133.3117" width="13.54622" height="22.01261" transform="translate(868.17023 -579.53422) rotate(90)" fill="#3f3d56"/>
    </g>
    <path d="M85.18205,330.61002l-13.07872-76.29253c-5.81157-33.90084,19.27967-65.27167,53.629-67.05071l186.44972-9.65676,44.49829-73.33978c5.89923-9.7228,16.44655-15.66022,27.81905-15.66022h133.96917c10.53065,0,19.42841,7.80916,20.79493,18.25077l3.4022,58.68312,334,1,42.01636,138.46769-39-1.90157,2,42-51,2-17.00105-48.07193c-3.20131-9.05198-17.22912-19.25848-31.80993-27.79778-32.68737-19.14345-74.68198-12.99928-99.41858,15.68933-5.83545,6.76774-9.91505,13.81911-11.05505,20.43115l-7.71538,44.74923-374-6-49.01636-68.56612c-14.48147-15.75924-82.84346-21.54789-89,0l-36.98364,54.56612-29.5-1.5Z" fill="#e6e6e6"/>
    <path d="M491.67852,133.23624l11.00353,51.87378-140,3,29.56846-63.48522c2.68237-5.7592,8.57057-9.33482,14.9178-9.05885l67.08684,2.91682c8.49261,.36924,15.65945,6.43787,17.42337,14.75348Z" fill="#fff"/>
    <polygon points="343.68205 184.11002 371.68205 112.11002 364.35134 104.77931 318.68205 174.11002 327.96158 188.11002 343.68205 184.11002" fill="#fff"/>
    <circle cx="744.68205" cy="352.11002" r="66" fill="#3f3d56" class="wheel"/>
    <path d="M699.18205,352.11002c0-25.08887,20.41113-45.5,45.5-45.5,25.08887,0,45.5,20.41113,45.5,45.5,0,25.08887-20.41113,45.5-45.5,45.5-25.08887,0-45.5-20.41113-45.5-45.5Zm1,0c0,24.53711,19.9624,44.5,44.5,44.5s44.5-19.96289,44.5-44.5c0-24.53711-19.9624-44.5-44.5-44.5s-44.5,19.96289-44.5,44.5Z" fill="#fff"/>
    <path d="M705.68205,352.11002c0,21.53906,17.46088,39,39,39,21.53912,0,39-17.46094,39-39,0-21.53906-17.46088-39-39-39-21.53912,0-39,17.46094-39,39Zm64.35132-9.33911l-6.91003,4.50354-2.65479-4.07336,9.56482-.43018Zm-10.51978,22.90454l1.84021-4.50049,5.79425,7.62207-7.63446-3.12158Zm-17.69373,15.43457l4.86218-8.24805v8.24805h-4.86218Zm0-47.75195l4.86218-8.24805v8.24805h-4.86218Zm-21.60382,35.43896l5.79425-7.62207,1.84021,4.50049-7.63446,3.12158Zm-2.88531-26.02612l9.56482,.43018-2.65479,4.07336-6.91003-4.50354Z" fill="#e6e6e6"/>
    <circle cx="190.68205" cy="352.11002" r="66" fill="#3f3d56" class="wheel"/>
    <path d="M145.18205,352.11002c0-25.08887,20.41113-45.5,45.5-45.5,25.08887,0,45.5,20.41113,45.5,45.5,0,25.08887-20.41113,45.5-45.5,45.5-25.08887,0-45.5-20.41113-45.5-45.5Zm1,0c0,24.53711,19.9624,44.5,44.5,44.5,24.5376,0,44.5-19.96289,44.5-44.5,0-24.53711-19.9624-44.5-44.5-44.5-24.5376,0-44.5,19.96289-44.5,44.5Z" fill="#fff"/>
    <path d="M151.68205,352.11002c0,21.53906,17.46088,39,39,39,21.53912,0,39-17.46094,39-39,0-21.53906-17.46088-39-39-39-21.53912,0-39,17.46094-39,39Zm64.35132-9.33911l-6.91003,4.50354-2.65479-4.07336,9.56482-.43018Zm-10.51978,22.90454l1.84021-4.50049,5.79425,7.62207-7.63446-3.12158Zm-17.69373,15.43457l4.86218-8.24805v8.24805h-4.86218Zm0-47.75195l4.86218-8.24805v8.24805h-4.86218Zm-21.60382,35.43896l5.79425-7.62207,1.84021,4.50049-7.63446,3.12158Zm-2.88531-26.02612l9.56482,.43018-2.65479,4.07336-6.91003-4.50354Z" fill="#e6e6e6"/>
    <rect x="466.18205" y="203.61002" width="38" height="8" transform="translate(970.36411 415.22004) rotate(-180)" fill="#3f3d56"/>
    <g>
        <g>
            <polygon points="503.94039 410.96659 517.82504 410.96525 524.43008 357.40955 503.93763 357.41097 503.94039 410.96659" fill="#ffb6b6"/>
            <path d="M551.51096,410.65165h0c.43232,.72811,.66043,3.07811,.66043,3.92484h0c0,2.60262-2.10981,4.71251-4.71251,4.7125l-42.99916-.00002c-1.77549,0-3.21489-1.43932-3.21489-3.21489v-1.79019s-2.12712-5.38046,2.25226-12.01217c0,0,5.44298,5.19273,13.57619-2.94047l2.39841-4.3449,17.36119,12.69711,9.62305,1.18451c2.10533,.25912,3.9719-.04021,5.05485,1.78369h.00017Z" fill="#2f2e41"/>
        </g>
        <g>
            <polygon points="441.55781 410.96659 455.44246 410.96525 462.0475 357.40955 441.55505 357.41097 441.55781 410.96659" fill="#ffb6b6"/>
            <path d="M489.12838,410.65165h0c.43232,.72811,.66043,3.07811,.66043,3.92484h0c0,2.60262-2.10981,4.71251-4.71251,4.7125l-42.99916-.00002c-1.77549,0-3.21489-1.43932-3.21489-3.21489v-1.79019s-2.12712-5.38046,2.25226-12.01217c0,0,5.44298,5.19273,13.57619-2.94047l2.39841-4.3449,17.36119,12.69711,9.62305,1.18451c2.10533,.25912,3.9719-.04021,5.05485,1.78369h.00017Z" fill="#2f2e41"/>
        </g>
        <polygon points="501.74142 45.27554 504.3773 69.87713 473.62533 67.24124 478.89709 44.39691 501.74142 45.27554" fill="#ffb6b6"/>
        <polygon points="501.74142 45.27554 504.3773 69.87713 473.62533 67.24124 478.89709 44.39691 501.74142 45.27554" isolation="isolate" opacity=".1"/>
        <circle cx="490.75857" cy="28.1423" r="20.20844" fill="#ffb6b6"/>
        <polygon points="503.93799 59.7729 537.76517 79.54203 526.682 133.13834 534.25066 205.18583 528.97889 381.79005 496.46965 378.27554 492.07651 228.03016 466.5963 383.54731 435.02796 383.54731 440.23746 215.72937 456.05277 144.5605 446.38786 67.24124 475.8219 58.01565 503.93799 59.7729" fill="#2f2e41"/>
        <path d="M505.25593,33.85338s1.75726-6.1504,5.71108-5.71108,4.83245-3.0752,3.95383-4.83245-2.63588-10.54354-2.63588-10.54354c0,0,.87863-6.1504-4.39314-7.02902-5.27177-.87863-7.02902-1.75726-7.90765-3.51451-.87863-1.75726-14.05805-3.51451-18.45119-.87863-4.39314,2.63588-7.90765,7.69318-10.98285,9.11836-3.0752,1.42518-5.71108,4.06106-3.95383,8.4542,1.75726,4.39314,4.30578,12.98518,4.30578,12.98518,0,0,4.4805-1.56302,5.35913,1.07287s-2.63588-.87863,1.75726-7.90765c4.39314-7.02902,4.39314-14.05805,11.42216-11.42216,7.02902,2.63588,14.93668,1.75726,14.05805,7.02902-.87863,5.27177,1.75726,13.17942,1.75726,13.17942Z" fill="#2f2e41"/>
        <path id="uuid-2f48dadd-bd50-474e-b6bc-efb589732da4-181" d="M520.32128,189.42435c-4.22916,4.47794-5.34674,10.28982-2.4965,12.98081,2.85023,2.69099,8.5881,1.24194,12.81816-3.23816,1.71428-1.76644,2.98062-3.91773,3.69303-6.2739l17.6795-19.19952-9.18661-8.10443-16.45353,19.78776c-2.31231,.84629-4.38826,2.23416-6.05406,4.04744Z" fill="#ffb6b6"/>
        <polygon points="537.40932 79.10272 567.18163 129.82591 571.59234 152.98215 542.92271 189.37053 530.79325 173.93304 545.12807 152.98215 521.97183 112.18306 537.40932 79.10272" fill="#2f2e41"/>
        <g>
            <path d="M453.70114,184.70132v-59.80533c0-9.11532,7.41537-16.53069,16.53069-16.53069h91.41953c9.11532,0,16.53069,7.41537,16.53069,16.53069v59.80533c0,9.11532-7.41537,16.53069-16.53069,16.53069h-91.41953c-9.11532,0-16.53069-7.41537-16.53069-16.53069Z" fill="#FFC107" class="cargo"/>
            <rect x="498.15861" y="138.20857" width="31.6142" height="7.90355" transform="translate(1027.93142 284.32068) rotate(180)" fill="#3f3d56"/>
            <rect x="506.43524" y="179.95538" width="15.8071" height="25.68654" transform="translate(707.13744 -321.54013) rotate(90)" fill="#3f3d56"/>
            <rect x="507.64086" y="103.95538" width="15.8071" height="25.68654" transform="translate(632.34306 -398.74576) rotate(90)" fill="#3f3d56"/>
        </g>
        <g>
            <path id="uuid-f6ce86b9-37cf-4878-a476-c93c5a2c7b27-182" d="M462.95311,178.00219c4.22916,4.47794,5.34674,10.28982,2.4965,12.98081-2.85023,2.69099-8.5881,1.24194-12.81816-3.23816-1.71428-1.76644-2.98062-3.91773-3.69303-6.2739l-17.6795-19.19952,9.18661-8.10443,16.45353,19.78776c2.31231,.84629,4.38826,2.23416,6.05406,4.04744Z" fill="#ffb6b6"/>
            <polygon points="445.86507 67.68056 416.09277 118.40375 411.68205 141.55999 440.35168 177.94837 452.48114 162.51087 438.14633 141.55999 461.30257 100.7609 445.86507 67.68056" fill="#2f2e41"/>
        </g>
    </g>
    <ellipse cx="75.6657" cy="286.04391" rx="27" ry="23.5" fill="#e6e6e6"/>
</svg>