<svg width="1366" height="679" viewBox="0 0 1366 679" fill="none" xmlns="http://www.w3.org/2000/svg">
<path fill-rule="evenodd" clip-rule="evenodd" d="M1366 305.204L1320.47 330.637C1274.93 356.071 1183.87 406.938 1092.8 470.522C1001.73 534.106 910.667 610.407 819.6 648.558C728.533 686.708 637.467 686.708 546.4 661.274C455.333 635.841 364.267 584.974 273.2 572.257C182.133 559.54 91.0667 584.974 45.5333 597.69L0 610.407V0H45.5333C91.0667 0 182.133 0 273.2 0C364.267 0 455.333 0 546.4 0C637.467 0 728.533 0 819.6 0C910.667 0 1001.73 0 1092.8 0C1183.87 0 1274.93 0 1320.47 0H1366V305.204Z" fill="url(#paint0_linear_230_54)"/>
<defs>
<linearGradient id="paint0_linear_230_54" x1="492" y1="3.8471e-06" x2="586.274" y2="645.333" gradientUnits="userSpaceOnUse">
<stop stop-color="#FF5733"/>
<stop offset="1" stop-color="#FF9166"/>
</linearGradient>
</defs>
</svg>
