<svg width="21" height="20" viewBox="0 0 21 20" fill="none" xmlns="http://www.w3.org/2000/svg">
<path d="M16.5338 6.72001L10.4031 12.6961L4.27243 6.72001C4.1629 6.61301 4.01585 6.55311 3.86273 6.55311C3.70961 6.55311 3.56257 6.61301 3.45304 6.72001C3.4 6.77197 3.35787 6.834 3.3291 6.90245C3.30034 6.97091 3.28552 7.04441 3.28552 7.11866C3.28552 7.19291 3.30034 7.26642 3.3291 7.33487C3.35787 7.40332 3.4 7.46535 3.45304 7.51732L9.97502 13.8762C10.0896 13.9878 10.2432 14.0503 10.4031 14.0503C10.5631 14.0503 10.7167 13.9878 10.8312 13.8762L17.3532 7.51854C17.4066 7.46654 17.449 7.40436 17.478 7.33568C17.507 7.267 17.522 7.19321 17.522 7.11866C17.522 7.04411 17.507 6.97032 17.478 6.90164C17.449 6.83296 17.4066 6.77079 17.3532 6.71878C17.2437 6.61178 17.0966 6.55188 16.9435 6.55188C16.7904 6.55188 16.6433 6.61178 16.5338 6.71878V6.72001Z" fill="#666666" stroke="#666666"/>
</svg>
