<svg width="16" height="16" viewBox="0 0 16 16" fill="none" xmlns="http://www.w3.org/2000/svg">
<path d="M7.99997 8.93337L4.7333 12.2C4.61108 12.3223 4.45553 12.3834 4.26664 12.3834C4.07775 12.3834 3.92219 12.3223 3.79997 12.2C3.67775 12.0778 3.61664 11.9223 3.61664 11.7334C3.61664 11.5445 3.67775 11.3889 3.79997 11.2667L7.06664 8.00003L3.79997 4.73337C3.67775 4.61114 3.61664 4.45559 3.61664 4.2667C3.61664 4.07781 3.67775 3.92225 3.79997 3.80003C3.92219 3.67781 4.07775 3.6167 4.26664 3.6167C4.45553 3.6167 4.61108 3.67781 4.7333 3.80003L7.99997 7.0667L11.2666 3.80003C11.3889 3.67781 11.5444 3.6167 11.7333 3.6167C11.9222 3.6167 12.0777 3.67781 12.2 3.80003C12.3222 3.92225 12.3833 4.07781 12.3833 4.2667C12.3833 4.45559 12.3222 4.61114 12.2 4.73337L8.9333 8.00003L12.2 11.2667C12.3222 11.3889 12.3833 11.5445 12.3833 11.7334C12.3833 11.9223 12.3222 12.0778 12.2 12.2C12.0777 12.3223 11.9222 12.3834 11.7333 12.3834C11.5444 12.3834 11.3889 12.3223 11.2666 12.2L7.99997 8.93337Z" fill="#FF5733"/>
</svg>
