<svg width="32" height="32" viewBox="0 0 32 32" fill="none" xmlns="http://www.w3.org/2000/svg">
<path d="M4.00001 5.33337H22.6667V10.6667H26.6667L30.6667 16V22.6667H28C28 23.7276 27.5786 24.745 26.8284 25.4951C26.0783 26.2453 25.0609 26.6667 24 26.6667C22.9391 26.6667 21.9217 26.2453 21.1716 25.4951C20.4214 24.745 20 23.7276 20 22.6667H12C12 23.7276 11.5786 24.745 10.8284 25.4951C10.0783 26.2453 9.06088 26.6667 8.00001 26.6667C6.93914 26.6667 5.92173 26.2453 5.17158 25.4951C4.42144 24.745 4.00001 23.7276 4.00001 22.6667H1.33334V8.00004C1.33334 7.2928 1.6143 6.61452 2.11439 6.11442C2.61449 5.61433 3.29277 5.33337 4.00001 5.33337ZM22.6667 12.6667V16H28.6267L26 12.6667H22.6667ZM8.00001 20.6667C7.46958 20.6667 6.96087 20.8774 6.5858 21.2525C6.21072 21.6276 6.00001 22.1363 6.00001 22.6667C6.00001 23.1971 6.21072 23.7058 6.5858 24.0809C6.96087 24.456 7.46958 24.6667 8.00001 24.6667C8.53044 24.6667 9.03915 24.456 9.41422 24.0809C9.7893 23.7058 10 23.1971 10 22.6667C10 22.1363 9.7893 21.6276 9.41422 21.2525C9.03915 20.8774 8.53044 20.6667 8.00001 20.6667ZM24 20.6667C23.4696 20.6667 22.9609 20.8774 22.5858 21.2525C22.2107 21.6276 22 22.1363 22 22.6667C22 23.1971 22.2107 23.7058 22.5858 24.0809C22.9609 24.456 23.4696 24.6667 24 24.6667C24.5304 24.6667 25.0392 24.456 25.4142 24.0809C25.7893 23.7058 26 23.1971 26 22.6667C26 22.1363 25.7893 21.6276 25.4142 21.2525C25.0392 20.8774 24.5304 20.6667 24 20.6667ZM10.6667 18.6667L18.6667 10.6667L16.7867 8.77337L10.6667 14.8934L7.88001 12.1067L6.00001 14L10.6667 18.6667Z" fill="#FF5733"/>
</svg>
