<svg width="16" height="16" viewBox="0 0 16 16" fill="none" xmlns="http://www.w3.org/2000/svg">
<path d="M12.998 5.32603L8.00002 10.198L3.00202 5.32603C2.91272 5.2388 2.79284 5.18996 2.66802 5.18996C2.54319 5.18996 2.42331 5.2388 2.33402 5.32603C2.29078 5.36839 2.25643 5.41896 2.23298 5.47477C2.20953 5.53057 2.19745 5.5905 2.19745 5.65103C2.19745 5.71156 2.20953 5.77149 2.23298 5.82729C2.25643 5.8831 2.29078 5.93367 2.33402 5.97603L7.65102 11.16C7.74439 11.251 7.86962 11.302 8.00002 11.302C8.13041 11.302 8.25564 11.251 8.34902 11.16L13.666 5.97703C13.7096 5.93463 13.7442 5.88394 13.7678 5.82795C13.7914 5.77196 13.8036 5.7118 13.8036 5.65103C13.8036 5.59026 13.7914 5.5301 13.7678 5.47411C13.7442 5.41812 13.7096 5.36743 13.666 5.32503C13.5767 5.2378 13.4568 5.18896 13.332 5.18896C13.2072 5.18896 13.0873 5.2378 12.998 5.32503V5.32603Z" fill="#666666" stroke="#666666"/>
</svg>
