<svg width="32" height="32" viewBox="0 0 32 32" fill="none" xmlns="http://www.w3.org/2000/svg">
<path fill-rule="evenodd" clip-rule="evenodd" d="M16 29.3333C10.3427 29.3333 7.51467 29.3333 5.75733 27.38C4 25.4293 4 22.2853 4 16C4 9.71463 4 6.57196 5.75733 4.61863C7.51467 2.66529 10.344 2.66663 16 2.66663C21.656 2.66663 24.4853 2.66663 26.2427 4.61863C28 6.57329 28 9.71463 28 16C28 22.2853 28 25.428 26.2427 27.38C24.4853 29.332 21.656 29.3333 16 29.3333ZM20 7.99996H12C11.38 7.99996 11.0707 7.99996 10.816 8.06796C10.4772 8.15888 10.1682 8.33734 9.92012 8.58541C9.67204 8.83348 9.49359 9.14245 9.40267 9.48129C9.33333 9.73863 9.33333 10.048 9.33333 10.6666C9.33333 11.2853 9.33333 11.596 9.40133 11.8506C9.49226 12.1895 9.67071 12.4984 9.91879 12.7465C10.1669 12.9946 10.4758 13.173 10.8147 13.264C11.072 13.3333 11.3813 13.3333 12 13.3333H20C20.62 13.3333 20.9293 13.3333 21.184 13.2653C21.5228 13.1744 21.8318 12.9959 22.0799 12.7478C22.328 12.4998 22.5064 12.1908 22.5973 11.852C22.6667 11.5946 22.6667 11.2853 22.6667 10.6666C22.6667 10.048 22.6667 9.73729 22.5987 9.48263C22.5077 9.14378 22.3293 8.83482 22.0812 8.58674C21.8331 8.33867 21.5242 8.16022 21.1853 8.06929C20.9293 7.99996 20.6187 7.99996 20 7.99996ZM12 17.3333C12 17.6869 11.8595 18.0261 11.6095 18.2761C11.3594 18.5261 11.0203 18.6666 10.6667 18.6666C10.313 18.6666 9.97391 18.5261 9.72386 18.2761C9.47381 18.0261 9.33333 17.6869 9.33333 17.3333C9.33333 16.9797 9.47381 16.6405 9.72386 16.3905C9.97391 16.1404 10.313 16 10.6667 16C11.0203 16 11.3594 16.1404 11.6095 16.3905C11.8595 16.6405 12 16.9797 12 17.3333ZM16 18.6666C16.3536 18.6666 16.6928 18.5261 16.9428 18.2761C17.1929 18.0261 17.3333 17.6869 17.3333 17.3333C17.3333 16.9797 17.1929 16.6405 16.9428 16.3905C16.6928 16.1404 16.3536 16 16 16C15.6464 16 15.3072 16.1404 15.0572 16.3905C14.8071 16.6405 14.6667 16.9797 14.6667 17.3333C14.6667 17.6869 14.8071 18.0261 15.0572 18.2761C15.3072 18.5261 15.6464 18.6666 16 18.6666ZM22.6667 17.3333C22.6667 17.6869 22.5262 18.0261 22.2761 18.2761C22.0261 18.5261 21.687 18.6666 21.3333 18.6666C20.9797 18.6666 20.6406 18.5261 20.3905 18.2761C20.1405 18.0261 20 17.6869 20 17.3333C20 16.9797 20.1405 16.6405 20.3905 16.3905C20.6406 16.1404 20.9797 16 21.3333 16C21.687 16 22.0261 16.1404 22.2761 16.3905C22.5262 16.6405 22.6667 16.9797 22.6667 17.3333ZM21.3333 24C21.687 24 22.0261 23.8595 22.2761 23.6094C22.5262 23.3594 22.6667 23.0202 22.6667 22.6666C22.6667 22.313 22.5262 21.9739 22.2761 21.7238C22.0261 21.4738 21.687 21.3333 21.3333 21.3333C20.9797 21.3333 20.6406 21.4738 20.3905 21.7238C20.1405 21.9739 20 22.313 20 22.6666C20 23.0202 20.1405 23.3594 20.3905 23.6094C20.6406 23.8595 20.9797 24 21.3333 24ZM17.3333 22.6666C17.3333 23.0202 17.1929 23.3594 16.9428 23.6094C16.6928 23.8595 16.3536 24 16 24C15.6464 24 15.3072 23.8595 15.0572 23.6094C14.8071 23.3594 14.6667 23.0202 14.6667 22.6666C14.6667 22.313 14.8071 21.9739 15.0572 21.7238C15.3072 21.4738 15.6464 21.3333 16 21.3333C16.3536 21.3333 16.6928 21.4738 16.9428 21.7238C17.1929 21.9739 17.3333 22.313 17.3333 22.6666ZM10.6667 24C11.0203 24 11.3594 23.8595 11.6095 23.6094C11.8595 23.3594 12 23.0202 12 22.6666C12 22.313 11.8595 21.9739 11.6095 21.7238C11.3594 21.4738 11.0203 21.3333 10.6667 21.3333C10.313 21.3333 9.97391 21.4738 9.72386 21.7238C9.47381 21.9739 9.33333 22.313 9.33333 22.6666C9.33333 23.0202 9.47381 23.3594 9.72386 23.6094C9.97391 23.8595 10.313 24 10.6667 24Z" fill="#FF5733"/>
</svg>
