<svg width="22" height="22" viewBox="0 0 22 22" fill="none" xmlns="http://www.w3.org/2000/svg">
<path d="M9.27208 19.9934C9.82758 20.4517 10.4069 20.8706 11 21.2795C11.5944 20.876 12.1709 20.4469 12.7279 19.9934C13.6565 19.2309 14.5304 18.4042 15.3432 17.5193C17.2168 15.4705 19.25 12.5005 19.25 9.16663C19.25 8.08322 19.0366 7.01042 18.622 6.00949C18.2074 5.00855 17.5997 4.09908 16.8336 3.33299C16.0675 2.56691 15.1581 1.95922 14.1571 1.54462C13.1562 1.13002 12.0834 0.916626 11 0.916626C9.91659 0.916626 8.8438 1.13002 7.84286 1.54462C6.84193 1.95922 5.93245 2.56691 5.16637 3.33299C4.40029 4.09908 3.7926 5.00855 3.37799 6.00949C2.96339 7.01042 2.75 8.08322 2.75 9.16663C2.75 12.5005 4.78317 15.4696 6.65683 17.5193C7.46957 18.4045 8.34347 19.2306 9.27208 19.9934ZM11 12.1458C10.2099 12.1458 9.45211 11.8319 8.89341 11.2732C8.33471 10.7145 8.02083 9.95675 8.02083 9.16663C8.02083 8.3765 8.33471 7.61874 8.89341 7.06004C9.45211 6.50134 10.2099 6.18746 11 6.18746C11.7901 6.18746 12.5479 6.50134 13.1066 7.06004C13.6653 7.61874 13.9792 8.3765 13.9792 9.16663C13.9792 9.95675 13.6653 10.7145 13.1066 11.2732C12.5479 11.8319 11.7901 12.1458 11 12.1458Z" fill="url(#paint0_linear_136_42)"/>
<defs>
<linearGradient id="paint0_linear_136_42" x1="11" y1="0.916626" x2="11" y2="21.2795" gradientUnits="userSpaceOnUse">
<stop stop-color="#FF5733"/>
<stop offset="1" stop-color="#FF9166"/>
</linearGradient>
</defs>
</svg>
