<svg width="34" height="34" viewBox="0 0 34 34" fill="none" xmlns="http://www.w3.org/2000/svg">
<g clip-path="url(#clip0_225_30)">
<path fill-rule="evenodd" clip-rule="evenodd" d="M17.8476 5.05145C19.5719 1.71217 23.1443 0.854882 25.0192 0.939882C26.3622 1.0006 26.9669 2.19302 26.9669 3.10131V7.3586C28.6669 8.21345 29.8059 9.35488 30.5053 10.7756C31.1926 12.1769 31.4014 13.7506 31.4379 15.3632L33.1257 16.7475C33.2648 16.8614 33.3768 17.0049 33.4536 17.1674C33.5305 17.3299 33.5703 17.5075 33.5702 17.6873V23.0763C33.5696 23.2526 33.5306 23.4266 33.456 23.5863C32.1252 26.4496 29.767 27.9966 26.9669 29.0919V30.6389C26.9669 31.283 26.711 31.9007 26.2556 32.3561C25.8001 32.8116 25.1824 33.0675 24.5383 33.0675H20.2883C19.6442 33.0675 19.0265 32.8116 18.571 32.3561C18.1156 31.9007 17.8597 31.283 17.8597 30.6389V29.4634H12.6626V30.4495C12.6626 31.0935 12.4067 31.7113 11.9513 32.1667C11.4958 32.6222 10.8781 32.878 10.234 32.878H5.94273C5.29864 32.878 4.68092 32.6222 4.22547 32.1667C3.77003 31.7113 3.51416 31.0935 3.51416 30.4495V26.282L3.42187 25.9882L3.3733 25.8352L3.05273 24.803L3.04059 24.7666C2.21002 21.9907 0.663017 16.8349 2.8803 11.917C3.04401 11.548 3.23056 11.1894 3.43887 10.8436C2.29259 9.93288 1.14145 8.65302 0.50516 6.94331C0.383255 6.57098 0.410037 6.16594 0.579904 5.8129C0.749771 5.45987 1.04957 5.18618 1.41658 5.0491C1.78359 4.91202 2.18939 4.92216 2.5491 5.0774C2.90881 5.23264 3.19456 5.52095 3.34659 5.88202C3.7473 6.9506 4.50259 7.82002 5.35988 8.49274C6.17953 7.7567 7.10143 7.14319 8.09688 6.67131C10.5182 5.51288 13.7069 4.91302 17.8476 5.05388V5.05145ZM17.9107 11.9049C17.9107 12.7427 17.2307 13.4227 16.3929 13.4227H11.8903C11.4877 13.4227 11.1017 13.2628 10.817 12.9782C10.5324 12.6935 10.3724 12.3074 10.3724 11.9049C10.3724 11.5023 10.5324 11.1162 10.817 10.8316C11.1017 10.5469 11.4877 10.387 11.8903 10.387H16.3929C17.2332 10.387 17.9107 11.067 17.9107 11.9049ZM23.8826 16.8033C24.1346 16.8162 24.3865 16.7777 24.6231 16.6901C24.8598 16.6026 25.0761 16.4678 25.259 16.2941C25.4419 16.1203 25.5875 15.9111 25.6871 15.6793C25.7866 15.4474 25.8379 15.1977 25.8379 14.9455C25.8379 14.6932 25.7866 14.4435 25.6871 14.2117C25.5875 13.9798 25.4419 13.7706 25.259 13.5969C25.0761 13.4231 24.8598 13.2883 24.6231 13.2008C24.3865 13.1132 24.1346 13.0747 23.8826 13.0876C23.4063 13.112 22.9575 13.3183 22.629 13.6641C22.3005 14.0098 22.1173 14.4685 22.1173 14.9455C22.1173 15.4224 22.3005 15.8811 22.629 16.2268C22.9575 16.5726 23.4063 16.7789 23.8826 16.8033Z" fill="#FF5733"/>
</g>
<defs>
<clipPath id="clip0_225_30">
<rect width="34" height="34" fill="white"/>
</clipPath>
</defs>
</svg>
