<svg width="34" height="34" viewBox="0 0 34 34" fill="none" xmlns="http://www.w3.org/2000/svg">
<path fill-rule="evenodd" clip-rule="evenodd" d="M17.8401 32.9488L17.8245 32.9517L17.7239 33.0012L17.6956 33.0069L17.6757 33.0012L17.5752 32.9517C17.5601 32.9469 17.5487 32.9493 17.5412 32.9587L17.5355 32.9729L17.5114 33.5792L17.5185 33.6076L17.5327 33.626L17.68 33.7308L17.7012 33.7365L17.7182 33.7308L17.8656 33.626L17.8826 33.6033L17.8882 33.5792L17.8642 32.9743C17.8604 32.9592 17.8524 32.9507 17.8401 32.9488ZM18.2155 32.7887L18.1971 32.7916L17.935 32.9233L17.9208 32.9375L17.9166 32.9531L17.9421 33.5622L17.9492 33.5792L17.9605 33.5892L18.2452 33.7209C18.2632 33.7256 18.2769 33.7219 18.2863 33.7096L18.292 33.6897L18.2438 32.8199C18.2391 32.8029 18.2297 32.7925 18.2155 32.7887ZM17.2026 32.7916C17.1963 32.7878 17.1889 32.7866 17.1818 32.7882C17.1746 32.7897 17.1684 32.794 17.1643 32.8001L17.1558 32.8199L17.1077 33.6897C17.1086 33.7067 17.1166 33.7181 17.1317 33.7237L17.153 33.7209L17.4377 33.5892L17.4519 33.5778L17.4576 33.5622L17.4817 32.9531L17.4774 32.9361L17.4632 32.9219L17.2026 32.7916Z" fill="#FF5733"/>
<path fill-rule="evenodd" clip-rule="evenodd" d="M17 2.83331C20.3815 2.83331 23.6245 4.17661 26.0156 6.5677C28.4067 8.95879 29.75 12.2018 29.75 15.5833C29.75 19.9381 27.3757 23.5025 24.8738 26.0596C23.6239 27.3233 22.26 28.4691 20.7995 29.4822L20.196 29.8931L19.9127 30.0815L19.3786 30.4215L18.9026 30.7119L18.3132 31.0547C17.9132 31.2831 17.4606 31.4031 17 31.4031C16.5394 31.4031 16.0868 31.2831 15.6867 31.0547L15.0974 30.7119L14.3608 30.2586L14.0887 30.0815L13.5079 29.6947C11.9323 28.6287 10.4648 27.4112 9.12617 26.0596C6.62433 23.5011 4.25 19.9381 4.25 15.5833C4.25 12.2018 5.5933 8.95879 7.98439 6.5677C10.3755 4.17661 13.6185 2.83331 17 2.83331ZM21.3633 11.3092L15.3496 17.3216L12.8449 14.8169C12.5791 14.5513 12.2186 14.4021 11.8428 14.4022C11.467 14.4024 11.1067 14.5518 10.841 14.8176C10.5754 15.0834 10.4262 15.4439 10.4264 15.8197C10.4265 16.1955 10.5759 16.5558 10.8417 16.8215L14.2474 20.2271C14.3921 20.3719 14.564 20.4868 14.7531 20.5651C14.9422 20.6435 15.1449 20.6838 15.3496 20.6838C15.5543 20.6838 15.757 20.6435 15.9461 20.5651C16.1352 20.4868 16.307 20.3719 16.4517 20.2271L23.3651 13.3124C23.6231 13.0452 23.7659 12.6874 23.7627 12.3159C23.7595 11.9445 23.6105 11.5891 23.3478 11.3265C23.0852 11.0638 22.7298 10.9148 22.3584 10.9116C21.987 10.9084 21.6305 11.0512 21.3633 11.3092Z" fill="#FF5733"/>
</svg>
