<svg width="34" height="34" viewBox="0 0 34 34" fill="none" xmlns="http://www.w3.org/2000/svg">
<path d="M17 2.83331C9.16587 2.83331 2.83337 9.20831 2.83337 17C2.83337 20.7572 4.32593 24.3606 6.98269 27.0173C8.29819 28.3328 9.85991 29.3763 11.5787 30.0883C13.2975 30.8002 15.1396 31.1666 17 31.1666C20.7573 31.1666 24.3606 29.6741 27.0174 27.0173C29.6742 24.3606 31.1667 20.7572 31.1667 17C31.1667 15.1396 30.8003 13.2974 30.0883 11.5786C29.3764 9.85985 28.3329 8.29813 27.0174 6.98263C25.7019 5.66714 24.1402 4.62363 22.4214 3.91169C20.7026 3.19974 18.8604 2.83331 17 2.83331ZM21.9584 11.3333C22.522 11.3333 23.0625 11.5572 23.461 11.9557C23.8595 12.3542 24.0834 12.8947 24.0834 13.4583C24.0834 14.0219 23.8595 14.5624 23.461 14.9609C23.0625 15.3594 22.522 15.5833 21.9584 15.5833C21.3948 15.5833 20.8543 15.3594 20.4558 14.9609C20.0573 14.5624 19.8334 14.0219 19.8334 13.4583C19.8334 12.8947 20.0573 12.3542 20.4558 11.9557C20.8543 11.5572 21.3948 11.3333 21.9584 11.3333ZM12.0417 11.3333C12.6053 11.3333 13.1458 11.5572 13.5443 11.9557C13.9428 12.3542 14.1667 12.8947 14.1667 13.4583C14.1667 14.0219 13.9428 14.5624 13.5443 14.9609C13.1458 15.3594 12.6053 15.5833 12.0417 15.5833C11.4781 15.5833 10.9376 15.3594 10.5391 14.9609C10.1406 14.5624 9.91671 14.0219 9.91671 13.4583C9.91671 12.8947 10.1406 12.3542 10.5391 11.9557C10.9376 11.5572 11.4781 11.3333 12.0417 11.3333ZM17 24.7916C13.6992 24.7916 10.8942 22.7233 9.76087 19.8333H24.2392C23.0917 22.7233 20.3009 24.7916 17 24.7916Z" fill="#FF5733"/>
</svg>
