<svg width="32" height="32" viewBox="0 0 32 32" fill="none" xmlns="http://www.w3.org/2000/svg">
<path d="M10.3333 3.33337C10.3333 3.06816 10.2279 2.8138 10.0404 2.62627C9.85288 2.43873 9.59852 2.33337 9.33331 2.33337C9.06809 2.33337 8.81374 2.43873 8.6262 2.62627C8.43866 2.8138 8.33331 3.06816 8.33331 3.33337V5.44004C6.41331 5.59337 5.15464 5.96937 4.22931 6.89604C3.30264 7.82137 2.92664 9.08137 2.77197 11H29.228C29.0733 9.08004 28.6973 7.82137 27.7706 6.89604C26.8453 5.96937 25.5853 5.59337 23.6666 5.43871V3.33337C23.6666 3.06816 23.5613 2.8138 23.3737 2.62627C23.1862 2.43873 22.9319 2.33337 22.6666 2.33337C22.4014 2.33337 22.1471 2.43873 21.9595 2.62627C21.772 2.8138 21.6666 3.06816 21.6666 3.33337V5.35071C20.78 5.33337 19.7853 5.33337 18.6666 5.33337H13.3333C12.2146 5.33337 11.22 5.33337 10.3333 5.35071V3.33337Z" fill="#FF5733"/>
<path fill-rule="evenodd" clip-rule="evenodd" d="M2.66663 16C2.66663 14.8813 2.66663 13.8867 2.68396 13H29.316C29.3333 13.8867 29.3333 14.8813 29.3333 16V18.6667C29.3333 23.6947 29.3333 26.2093 27.7706 27.7707C26.208 29.332 23.6946 29.3333 18.6666 29.3333H13.3333C8.30529 29.3333 5.79063 29.3333 4.22929 27.7707C2.66796 26.208 2.66663 23.6947 2.66663 18.6667V16ZM22.6666 18.6667C23.0202 18.6667 23.3594 18.5262 23.6094 18.2761C23.8595 18.0261 24 17.687 24 17.3333C24 16.9797 23.8595 16.6406 23.6094 16.3905C23.3594 16.1405 23.0202 16 22.6666 16C22.313 16 21.9739 16.1405 21.7238 16.3905C21.4738 16.6406 21.3333 16.9797 21.3333 17.3333C21.3333 17.687 21.4738 18.0261 21.7238 18.2761C21.9739 18.5262 22.313 18.6667 22.6666 18.6667ZM22.6666 24C23.0202 24 23.3594 23.8595 23.6094 23.6095C23.8595 23.3594 24 23.0203 24 22.6667C24 22.313 23.8595 21.9739 23.6094 21.7239C23.3594 21.4738 23.0202 21.3333 22.6666 21.3333C22.313 21.3333 21.9739 21.4738 21.7238 21.7239C21.4738 21.9739 21.3333 22.313 21.3333 22.6667C21.3333 23.0203 21.4738 23.3594 21.7238 23.6095C21.9739 23.8595 22.313 24 22.6666 24ZM17.3333 17.3333C17.3333 17.687 17.1928 18.0261 16.9428 18.2761C16.6927 18.5262 16.3536 18.6667 16 18.6667C15.6463 18.6667 15.3072 18.5262 15.0571 18.2761C14.8071 18.0261 14.6666 17.687 14.6666 17.3333C14.6666 16.9797 14.8071 16.6406 15.0571 16.3905C15.3072 16.1405 15.6463 16 16 16C16.3536 16 16.6927 16.1405 16.9428 16.3905C17.1928 16.6406 17.3333 16.9797 17.3333 17.3333ZM17.3333 22.6667C17.3333 23.0203 17.1928 23.3594 16.9428 23.6095C16.6927 23.8595 16.3536 24 16 24C15.6463 24 15.3072 23.8595 15.0571 23.6095C14.8071 23.3594 14.6666 23.0203 14.6666 22.6667C14.6666 22.313 14.8071 21.9739 15.0571 21.7239C15.3072 21.4738 15.6463 21.3333 16 21.3333C16.3536 21.3333 16.6927 21.4738 16.9428 21.7239C17.1928 21.9739 17.3333 22.313 17.3333 22.6667ZM9.33329 18.6667C9.68691 18.6667 10.0261 18.5262 10.2761 18.2761C10.5261 18.0261 10.6666 17.687 10.6666 17.3333C10.6666 16.9797 10.5261 16.6406 10.2761 16.3905C10.0261 16.1405 9.68691 16 9.33329 16C8.97967 16 8.64053 16.1405 8.39048 16.3905C8.14044 16.6406 7.99996 16.9797 7.99996 17.3333C7.99996 17.687 8.14044 18.0261 8.39048 18.2761C8.64053 18.5262 8.97967 18.6667 9.33329 18.6667ZM9.33329 24C9.68691 24 10.0261 23.8595 10.2761 23.6095C10.5261 23.3594 10.6666 23.0203 10.6666 22.6667C10.6666 22.313 10.5261 21.9739 10.2761 21.7239C10.0261 21.4738 9.68691 21.3333 9.33329 21.3333C8.97967 21.3333 8.64053 21.4738 8.39048 21.7239C8.14044 21.9739 7.99996 22.313 7.99996 22.6667C7.99996 23.0203 8.14044 23.3594 8.39048 23.6095C8.64053 23.8595 8.97967 24 9.33329 24Z" fill="#FF5733"/>
</svg>
